<?xml version="1.0" encoding="UTF-8"?>
<!DOCTYPE svg PUBLIC "-//W3C//DTD SVG 1.1//EN" "http://www.w3.org/Graphics/SVG/1.1/DTD/svg11.dtd">
<!-- Creator: CorelDRAW -->
<svg xmlns="http://www.w3.org/2000/svg" xml:space="preserve" width="160px" height="56px" version="1.1" style="shape-rendering:geometricPrecision; text-rendering:geometricPrecision; image-rendering:optimizeQuality; fill-rule:evenodd; clip-rule:evenodd"
viewBox="0 0 160 56"
 xmlns:xlink="http://www.w3.org/1999/xlink"
 xmlns:xodm="http://www.corel.com/coreldraw/odm/2003">
 <defs>
  <style type="text/css">
   <![CDATA[
    .fil69 {fill:#B82804}
    .fil68 {fill:#B92905}
    .fil67 {fill:#B92A06}
    .fil66 {fill:#BA2A07}
    .fil65 {fill:#BA2B07}
    .fil64 {fill:#BA2B08}
    .fil63 {fill:#BA2C08}
    .fil62 {fill:#BB2C08}
    .fil61 {fill:#BB2D09}
    .fil60 {fill:#BB2D0A}
    .fil59 {fill:#BC2E0A}
    .fil58 {fill:#BC2E0B}
    .fil57 {fill:#BC2F0B}
    .fil56 {fill:#BC2F0C}
    .fil55 {fill:#BD2F0C}
    .fil54 {fill:#BD300C}
    .fil53 {fill:#BD300D}
    .fil52 {fill:#BD310D}
    .fil51 {fill:#BE310E}
    .fil50 {fill:#BE320E}
    .fil49 {fill:#BE320F}
    .fil48 {fill:#BF3310}
    .fil47 {fill:#BF3411}
    .fil46 {fill:#C03411}
    .fil45 {fill:#C03512}
    .fil44 {fill:#C13613}
    .fil43 {fill:#C13714}
    .fil42 {fill:#C23715}
    .fil41 {fill:#C23815}
    .fil40 {fill:#C23916}
    .fil39 {fill:#C33916}
    .fil38 {fill:#C33917}
    .fil37 {fill:#C33A17}
    .fil36 {fill:#C33A18}
    .fil35 {fill:#C43B18}
    .fil34 {fill:#C43B19}
    .fil33 {fill:#C43C19}
    .fil32 {fill:#C53C1A}
    .fil31 {fill:#C53D1A}
    .fil30 {fill:#C53D1B}
    .fil29 {fill:#C53E1B}
    .fil28 {fill:#C63E1C}
    .fil27 {fill:#C63F1D}
    .fil26 {fill:#C7401D}
    .fil25 {fill:#C7401E}
    .fil24 {fill:#C7411E}
    .fil23 {fill:#C8411F}
    .fil22 {fill:#C84220}
    .fil21 {fill:#C94321}
    .fil20 {fill:#C94322}
    .fil19 {fill:#C94422}
    .fil18 {fill:#CA4422}
    .fil17 {fill:#CA4523}
    .fil16 {fill:#CA4624}
    .fil15 {fill:#CB4624}
    .fil14 {fill:#CB4625}
    .fil13 {fill:#CB4725}
    .fil12 {fill:#CB4726}
    .fil11 {fill:#CC4826}
    .fil10 {fill:#CC4827}
    .fil9 {fill:#CC4927}
    .fil8 {fill:#CD4928}
    .fil7 {fill:#CD4A28}
    .fil6 {fill:#CD4A29}
    .fil5 {fill:#CD4B29}
    .fil4 {fill:#CE4B2A}
    .fil3 {fill:#CE4C2A}
    .fil2 {fill:#CF4C2B}
    .fil1 {fill:#CF4D2B}
    .fil0 {fill:#CF4D2C}
    .fil70 {fill:#D04E2D}
    .fil71 {fill:#D04F2E}
    .fil72 {fill:#D14F2E}
    .fil73 {fill:#D1502F}
    .fil74 {fill:#D15130}
    .fil75 {fill:#D25130}
    .fil76 {fill:#D25231}
    .fil77 {fill:#D25232}
    .fil78 {fill:#D35332}
    .fil79 {fill:#D35433}
    .fil80 {fill:#D45434}
    .fil81 {fill:#D45534}
    .fil82 {fill:#D45535}
    .fil83 {fill:#D45635}
    .fil84 {fill:#D55636}
    .fil85 {fill:#D55736}
    .fil86 {fill:#D55737}
    .fil87 {fill:#D65737}
    .fil88 {fill:#D65837}
    .fil89 {fill:#D65838}
    .fil90 {fill:#D65938}
    .fil91 {fill:#D75939}
    .fil92 {fill:#D75A3A}
    .fil93 {fill:#D85B3B}
    .fil94 {fill:#D85C3B}
    .fil95 {fill:#D85C3C}
    .fil96 {fill:#D95C3C}
    .fil97 {fill:#D95D3D}
    .fil98 {fill:#D95E3E}
    .fil99 {fill:#DA5E3E}
    .fil100 {fill:#DA5E3F}
    .fil101 {fill:#DA5F3F}
    .fil102 {fill:#DB6040}
    .fil103 {fill:#DB6141}
    .fil104 {fill:#DC6142}
    .fil105 {fill:#DC6242}
    .fil106 {fill:#DC6243}
    .fil107 {fill:#DC6343}
    .fil108 {fill:#DD6343}
    .fil109 {fill:#DD6344}
    .fil110 {fill:#DD6444}
    .fil111 {fill:#DE6445}
    .fil112 {fill:#DE6545}
    .fil113 {fill:#DE6546}
    .fil114 {fill:#DE6646}
    .fil115 {fill:#DF6647}
    .fil116 {fill:#DF6748}
    .fil117 {fill:#E06848}
    .fil118 {fill:#E06849}
    .fil119 {fill:#E0694A}
    .fil120 {fill:#E1694A}
    .fil121 {fill:#E16A4B}
    .fil122 {fill:#E16B4C}
    .fil123 {fill:#E26B4C}
    .fil124 {fill:#E26C4D}
    .fil125 {fill:#E36D4E}
    .fil126 {fill:#E36D4F}
    .fil127 {fill:#E36E4F}
    .fil128 {fill:#E46E50}
    .fil129 {fill:#E46F50}
    .fil130 {fill:#E56F51}
    .fil131 {fill:#E57051}
    .fil132 {fill:#E57052}
    .fil133 {fill:#E57152}
    .fil134 {fill:#E67153}
    .fil135 {fill:#E67253}
    .fil136 {fill:#E67254}
    .fil137 {fill:#E77354}
    .fil138 {fill:#E77355}
    .fil139 {fill:#E77455}
    .fil140 {fill:#E77456}
    .fil141 {fill:#E87456}
    .fil142 {fill:#E87557}
    .fil143 {fill:#E87658}
    .fil144 {fill:#E97658}
    .fil145 {fill:#E97758}
    .fil146 {fill:#E97759}
    .fil147 {fill:#EA785A}
    .fil148 {fill:#EA795B}
    .fil149 {fill:#EB795C}
    .fil150 {fill:#EB7A5C}
    .fil151 {fill:#EB7A5D}
    .fil152 {fill:#EC7B5D}
    .fil153 {fill:#EC7C5E}
    .fil154 {fill:#ED7C5F}
    .fil155 {fill:#ED7D5F}
    .fil156 {fill:#ED7D60}
    .fil157 {fill:#ED7E60}
    .fil158 {fill:#EE7E61}
    .fil159 {fill:#EE7F61}
    .fil160 {fill:#EE7F62}
    .fil161 {fill:#EF8062}
    .fil162 {fill:#EF8063}
    .fil163 {fill:#EF8163}
    .fil164 {fill:#EF8164}
    .fil165 {fill:#F08164}
    .fil166 {fill:#F08265}
    .fil167 {fill:#F08365}
    .fil168 {fill:#F18366}
    .fil169 {fill:#F18467}
    .fil170 {fill:#F28568}
    .fil171 {fill:#F28669}
    .fil172 {fill:#F38669}
    .fil173 {fill:#F3876A}
    .fil174 {fill:#F4886B}
    .fil175 {fill:#F4886C}
    .fil176 {fill:#F4896C}
    .fil177 {fill:#F5896D}
    .fil178 {fill:#F58A6D}
    .fil179 {fill:#F58A6E}
    .fil180 {fill:#F58B6E}
    .fil181 {fill:#F68B6E}
    .fil182 {fill:#F68B6F}
    .fil183 {fill:#F68C6F}
    .fil184 {fill:#F68C70}
    .fil185 {fill:#F78D70}
    .fil186 {fill:#F78D71}
    .fil187 {fill:#F78E72}
    .fil188 {fill:#F88E72}
    .fil189 {fill:#F88F72}
    .fil190 {fill:#F88F73}
    .fil191 {fill:#F89073}
    .fil192 {fill:#F99074}
    .fil193 {fill:#F99175}
    .fil194 {fill:#FA9276}
   ]]>
  </style>
    <clipPath id="id0">
     <path d="M6.5 30.95c0.71,6.99 4.26,13.45 9.63,17.96 5.74,4.82 13.03,7.01 20.5,6.24 4.97,-0.52 9.67,-2.44 13.61,-5.43l3.69 0c0.11,0 0.18,-0.03 0.26,-0.11 0.07,-0.07 0.1,-0.16 0.1,-0.25 0,-0.11 -0.03,-0.19 -0.1,-0.27 -0.08,-0.06 -0.15,-0.09 -0.26,-0.09l-1.09 0c-0.4,0 -0.76,-0.15 -1.04,-0.43l-0.07 -0.07c1.05,-0.91 2.02,-1.89 2.92,-2.96 4.85,-5.73 7.02,-13.01 6.24,-20.47 -0.7,-6.79 -4.05,-13.09 -9.16,-17.59l0.07 -0.07c0.28,-0.28 0.64,-0.43 1.04,-0.43l1.09 0c0.11,0 0.18,-0.03 0.26,-0.09 0.07,-0.08 0.1,-0.16 0.1,-0.27 0,-0.11 -0.03,-0.18 -0.1,-0.26 -0.08,-0.07 -0.15,-0.1 -0.26,-0.1l-3.68 0c-5.57,-4.26 -12.46,-6.13 -19.49,-5.41 -6.81,0.7 -13.13,4.04 -17.64,9.16l-1.75 -3.75 -9.01 0c-0.1,0 -0.18,0.03 -0.26,0.1 -0.07,0.08 -0.1,0.15 -0.1,0.26 0,0.11 0.03,0.19 0.1,0.27 0.08,0.06 0.16,0.09 0.26,0.09l1.1 0c0.41,0 0.75,0.15 1.04,0.43 0.28,0.28 0.42,0.64 0.42,1.04l0 39.07c0,0.41 -0.14,0.75 -0.42,1.05 -0.29,0.28 -0.63,0.43 -1.04,0.43l-1.1 0c-0.1,0 -0.18,0.03 -0.26,0.09 -0.07,0.08 -0.1,0.16 -0.1,0.27 0,0.09 0.03,0.18 0.1,0.25 0.08,0.08 0.16,0.11 0.26,0.11l5.85 0c0.1,0 0.19,-0.03 0.26,-0.11 0.06,-0.07 0.1,-0.16 0.1,-0.25 0,-0.11 -0.04,-0.19 -0.1,-0.27 -0.07,-0.06 -0.16,-0.09 -0.26,-0.09l-1.1 0c-0.4,0 -0.75,-0.15 -1.02,-0.43 -0.3,-0.3 -0.43,-0.64 -0.43,-1.05l0 -39.07c0,-0.17 0.03,-0.34 0.07,-0.49l3.58 7.66c-2.39,4.68 -3.34,9.97 -2.81,15.33l0 0zm136.44 18.77c4.08,0 7.46,-0.88 10.14,-2.66 2.68,-1.77 4.15,-4.38 4.43,-7.83l0.03 -0.88c0,-1.69 -0.28,-3.15 -0.85,-4.39 -0.56,-1.25 -1.32,-2.35 -2.27,-3.3 -0.94,-0.95 -1.99,-1.82 -3.17,-2.59 -1.16,-0.76 -2.36,-1.49 -3.57,-2.18 -1.79,-1.01 -3.44,-2.09 -4.96,-3.22 -1.48,-1.2 -2.58,-2.58 -3.32,-4.17 -0.72,-1.57 -1.09,-3.11 -1.09,-4.61 0,-1.17 0.22,-2.27 0.67,-3.25 0.45,-1 1.11,-1.79 1.99,-2.38 0.88,-0.59 2,-0.88 3.33,-0.88 1.5,0 2.8,0.31 3.88,0.95 1.09,0.61 1.95,1.69 2.58,3.19 0.63,1.5 1.02,3.53 1.15,6.1l6.09 -4.91c-1.71,-2.16 -3.66,-3.78 -5.86,-4.84 -2.2,-1.08 -4.85,-1.61 -7.93,-1.61 -2.55,0 -4.72,0.46 -6.49,1.36 -1.77,0.91 -3.14,2.12 -4.07,3.64 -0.93,1.51 -1.4,3.14 -1.4,4.91 0,1.74 0.48,3.5 1.42,5.27 0.96,1.77 2.45,3.4 4.45,4.88 1.33,0.94 2.72,1.87 4.21,2.77 2.2,1.31 4.17,2.7 5.97,4.15 1.15,1.02 2.01,2.15 2.56,3.39 0.56,1.25 0.84,2.51 0.84,3.76 0,1.41 -0.34,2.75 -1.01,3.99 -0.7,1.25 -1.67,2.27 -2.95,3.05 -1.27,0.78 -2.82,1.17 -4.65,1.17 -1.72,-0.06 -3.25,-0.69 -4.57,-1.86 -1.33,-1.18 -2.36,-2.59 -3.12,-4.26 -0.76,-1.65 -1.14,-3.2 -1.14,-4.61l0.06 -0.8 -6.06 4.9c2.09,2.7 4.22,4.66 6.38,5.89 2.16,1.24 4.92,1.86 8.3,1.86l0 0zm-21.22 0c1.18,0 2.3,-0.4 3.38,-1.24 1.08,-0.82 1.88,-2.11 2.4,-3.87l0 -0.09c0,-0.21 -0.09,-0.34 -0.27,-0.36 -0.12,0 -0.23,0.09 -0.31,0.26 -0.42,1.37 -1.01,2.39 -1.77,3.09 -0.74,0.71 -1.46,1.06 -2.15,1.06 -0.5,0 -0.93,-0.21 -1.28,-0.62 -0.35,-0.4 -0.52,-1.03 -0.52,-1.91 0,-0.99 0.37,-2.75 1.1,-5.25 0.25,-0.85 0.48,-1.76 0.73,-2.71 0.2,-0.83 0.31,-1.62 0.31,-2.36 0,-1.88 -0.5,-3.52 -1.47,-4.96 -1,-1.42 -2.26,-2.56 -3.77,-3.4 -1.53,-0.84 -3.12,-1.34 -4.78,-1.5 1.23,-0.49 2.12,-0.84 2.65,-1.06 0.66,-0.32 1.41,-0.71 2.24,-1.18 1.89,-1.14 3.29,-2.44 4.18,-3.91 0.9,-1.47 1.34,-2.96 1.34,-4.46 0,-1.56 -0.43,-3.02 -1.31,-4.39 -0.87,-1.36 -2.12,-2.47 -3.76,-3.32 -1.63,-0.86 -3.58,-1.28 -5.86,-1.28l-16.53 0c-0.1,0 -0.18,0.03 -0.26,0.1 -0.07,0.08 -0.11,0.16 -0.11,0.26 0,0.09 0.04,0.16 0.11,0.25 0.08,0.07 0.16,0.11 0.26,0.11l1.11 0c0.39,0 0.74,0.15 1.02,0.43 0.29,0.28 0.43,0.64 0.43,1.04l0 39.07c0,0.39 -0.14,0.74 -0.43,1.03 -0.28,0.3 -0.63,0.45 -1.02,0.45l-1.11 0c-0.1,0 -0.18,0.03 -0.26,0.09 -0.07,0.08 -0.11,0.16 -0.11,0.27 0,0.09 0.04,0.18 0.11,0.25 0.08,0.08 0.16,0.11 0.26,0.11l10.96 0c0.11,0 0.19,-0.03 0.27,-0.11 0.06,-0.07 0.09,-0.16 0.09,-0.25 0,-0.11 -0.03,-0.19 -0.09,-0.27 -0.08,-0.06 -0.16,-0.09 -0.27,-0.09l-1.1 0c-0.41,0 -0.75,-0.15 -1.02,-0.45 -0.3,-0.29 -0.43,-0.64 -0.43,-1.03l0 -15.98c0.19,-1.33 0.81,-2.31 1.83,-2.94 1.03,-0.63 2.13,-1.11 3.28,-1.46 0.69,-0.21 1.38,-0.31 2.06,-0.31 1.69,0 3.18,0.53 4.49,1.58 1.29,1.06 1.94,2.41 1.94,4.08 0,0.65 -0.11,1.35 -0.31,2.1 -0.23,0.74 -0.47,1.54 -0.75,2.37 -0.36,1.03 -0.71,2.13 -1.02,3.32 -0.32,1.19 -0.49,2.45 -0.5,3.78 0,1.16 0.3,2.16 0.92,3.02 0.62,0.84 1.4,1.5 2.33,1.96 0.94,0.45 1.86,0.68 2.77,0.68l0 0zm-17.04 -20.43l0 -22.31 3.98 -0.03 1.43 0.03c2.23,0.21 4.07,1.12 5.52,2.77 1.43,1.65 2.16,3.56 2.16,5.77 0,1.3 -0.3,2.62 -0.89,3.94 -0.59,1.33 -1.55,2.6 -2.86,3.81 -1.32,1.21 -3.05,2.32 -5.18,3.29 -0.85,0.36 -1.64,0.76 -2.37,1.18 -0.73,0.43 -1.33,0.95 -1.79,1.55l0 0zm-9.91 20.43c0.11,0 0.19,-0.03 0.26,-0.11 0.07,-0.07 0.11,-0.16 0.11,-0.25 0,-0.11 -0.04,-0.19 -0.11,-0.27 -0.07,-0.06 -0.15,-0.09 -0.26,-0.09l-1.12 0c-1.06,0 -1.8,-0.51 -2.25,-1.51 -7.63,-20.92 -12.66,-34.68 -15.07,-41.23l-5.43 0c-0.25,0.68 -5.54,15.18 -15.85,43.46l6.67 0c-0.17,-0.98 -0.24,-2.09 -0.24,-3.35 0,-3.31 0.48,-7.29 1.46,-11.91l17.5 0c1.93,5.24 3.35,9.13 4.27,11.67l0.63 1.74c0.04,0.11 0.06,0.25 0.06,0.39 0,0.48 -0.28,0.74 -0.85,0.74l-1.1 0c-0.1,0 -0.19,0.03 -0.26,0.09 -0.06,0.08 -0.11,0.16 -0.11,0.27 0,0.09 0.05,0.18 0.11,0.25 0.07,0.08 0.17,0.11 0.26,0.11l11.32 0 0 0zm-14.58 -15.99l-17.11 0c1.39,-6.38 3.09,-12.38 5.12,-17.99l2.7 -7.38 9.3 25.37 -0.01 0zm-28.82 10.2l0 -13.65c1.11,1.43 2.68,2.43 4.43,2.97l3.77 1 -0.28 1.13c-0.74,2.92 -3.38,8.21 -5.66,10.16l-0.98 0.84 -0.74 -1.06c-0.21,-0.29 -0.39,-0.84 -0.54,-1.39l0 0zm0 -14.95l0 -12.6c0.49,0.16 0.99,0.29 1.47,0.4 0.98,0.25 1.98,0.45 2.96,0.64 0.63,0.11 1.31,0.21 1.92,0.37l0.51 0.11 0.25 0.46c0.93,1.74 1.47,4.72 1.73,6.66 0.26,2.07 0.5,5.3 -0.35,7.25l-0.28 0.64 -0.7 0.06c-2.51,0.21 -5,-0.92 -6.65,-2.8 -0.34,-0.4 -0.63,-0.79 -0.86,-1.19l0 0zm0 -13.39l0 -7.14c0,-0.11 0.01,-0.21 0.03,-0.31 2.18,1.97 4.79,4.9 5.6,7.11l0.64 1.75 -1.85 -0.18c-1.6,-0.15 -2.98,-0.6 -4.42,-1.23l0 0zm-2.31 -9.33l-3.53 0 -6.7 14.36c-1.3,0.04 -2.78,0.03 -3.98,-0.28 -1.06,-0.27 -1.85,-0.79 -2.43,-1.72 -0.46,-0.73 -0.74,-1.61 -1.08,-2.4 -0.49,-1.13 -1.09,-2.13 -1.86,-3.09 -0.97,-1.21 -2.66,-2.32 -4,-3.06 -1.76,-0.96 -3.79,-1.75 -5.77,-2.09l-1.98 -0.33 1.26 -1.56c0.2,-0.24 0.31,-0.35 0.54,-0.57 1.29,-1.15 5.51,-2.79 7.26,-3.23 3.29,-0.84 6.24,-0.97 9.63,-0.79l0.95 0.05 0.14 0.95c0.22,1.51 0.79,2.89 1.59,4.18 0.34,0.55 0.7,1.27 1.15,1.73 0.24,0.24 0.48,0.38 0.77,0.42 0.09,-0.12 0.17,-0.23 0.2,-0.31 -0.1,-0.24 -0.7,-0.96 -0.83,-1.15 -0.81,-1.11 -1.72,-2.58 -1.88,-3.96l-0.21 -1.67 1.64 0.4c3.28,0.79 6.38,2.17 9.12,4.12l0 0zm-10.56 15.05l-6.34 13.59c-2.07,0.1 -3.84,-0.25 -5.79,-1.11 -0.77,-0.35 -1.53,-0.89 -2.26,-1.33 -0.12,-0.08 -0.4,-0.23 -0.68,-0.38l-9.99 -21.39c0.85,-1 1.9,-2.01 2.76,-2.22 3.36,-0.78 8.32,1.6 10.99,3.56 1.91,1.41 3.03,2.87 3.88,5.05 0.44,1.14 0.73,2.28 1.76,3.04 1.37,0.99 3.2,1.18 4.84,1.2 0.28,0 0.55,0 0.83,-0.01zm-6.63 14.2l-3.42 7.3 -4.44 -9.52c2.68,1.7 5.09,2.25 7.86,2.22zm-22 -18.71l13.02 27.94c-2.02,-0.43 -3.46,-1.58 -4.29,-3.75 -0.63,-1.62 -0.86,-3.75 -1.81,-5.19 -2.43,-3.65 -4.62,-4.32 -8.73,-5.15l-0.82 -0.17 -0.11 -0.84c-0.36,-2.85 0.53,-10.51 2.53,-12.62l0.21 -0.22 0 0zm13.38 28.68l1.97 4.24 0.83 0 2.12 -4.54 0.12 -0.03c1.95,-0.51 3.55,-1.64 5.69,-1.52 2.14,0.12 4.12,1.22 5.48,2.85 1.46,1.76 2.1,4.03 1.74,6.29l-0.11 0.67 -0.64 0.25c-3.77,1.41 -8.07,1.25 -11.96,0.39 -3.4,-0.76 -7.13,-2.23 -9.99,-4.23 -5.55,-3.87 -10.06,-10.22 -10.99,-16.99l-0.18 -1.32 1.33 -0.01c3.97,-0.05 7.58,3.42 8.59,7.08 0.91,3.31 1.44,5.77 5.3,6.73 0.24,0.05 0.46,0.1 0.7,0.14l0 0zm5.31 -1.13l4.13 -8.86c0.69,-0.04 1.41,-0.1 2.15,-0.18 3.81,-0.46 7.13,-1.09 10.69,0.79l0 11.42c0,0.41 -0.14,0.75 -0.44,1.05 -0.28,0.28 -0.62,0.43 -1.02,0.43l-1.1 0c-0.1,0 -0.19,0.03 -0.26,0.09 -0.06,0.08 -0.1,0.16 -0.1,0.27 0,0.09 0.04,0.18 0.1,0.25 0.07,0.08 0.16,0.11 0.26,0.11l6.19 0c-1.71,1.19 -4.46,2.68 -5.74,2.88l-1.33 0.22 -0.03 -1.34c-0.09,-3.55 -2.37,-6.73 -5.69,-7.98 -2.03,-0.77 -3.46,-0.68 -5.46,0.02 -0.79,0.27 -1.56,0.57 -2.35,0.83zm4.44 -9.51l6.32 -13.56c1.52,-0.06 3.05,-0.19 4.58,-0.17 0.55,0.01 1.11,0.04 1.63,0.11l0 14.12c-2.16,-1.04 -4.68,-1.27 -7.04,-1.16 -1.88,0.09 -3.66,0.47 -5.49,0.66l0 0zm6.65 -14.25l4.08 -8.77c0.2,0.26 0.51,0.55 0.64,0.64 0.22,0.17 0.8,0.52 1.16,0.57l0 7.55c-1.89,-0.23 -4.03,-0.07 -5.88,0.01l0 0zm4.33 -9.3l1.55 -3.33 0 4.41c-0.18,-0.23 -0.4,-0.43 -0.51,-0.52 -0.18,-0.15 -0.68,-0.47 -1.04,-0.56z"/>
    </clipPath>
 </defs>
 <g id="Camada_x0020_1">
  <metadata id="CorelCorpID_0Corel-Layer"/>
  <g>
   <g style="clip-path:url(#id0)">
    <polygon class="fil0" points="157.88,-0.92 157.88,-0.86 1.57,0.51 1.57,0.44 "/>
    <polygon id="_1" class="fil1" points="157.88,-0.91 157.88,-0.74 1.57,0.62 1.57,0.45 "/>
    <polygon id="_2" class="fil2" points="157.88,-0.8 157.88,-0.63 1.57,0.73 1.57,0.56 "/>
    <polygon id="_3" class="fil3" points="157.88,-0.69 157.88,-0.52 1.58,0.84 1.57,0.67 "/>
    <polygon id="_4" class="fil4" points="157.88,-0.58 157.89,-0.41 1.58,0.95 1.58,0.79 "/>
    <polygon id="_5" class="fil4" points="157.89,-0.47 157.89,-0.3 1.58,1.06 1.58,0.9 "/>
    <polygon id="_6" class="fil5" points="157.89,-0.36 157.89,-0.19 1.58,1.17 1.58,1.01 "/>
    <polygon id="_7" class="fil6" points="157.89,-0.24 157.89,-0.08 1.58,1.29 1.58,1.12 "/>
    <polygon id="_8" class="fil7" points="157.89,-0.13 157.89,0.03 1.58,1.4 1.58,1.23 "/>
    <polygon id="_9" class="fil8" points="157.89,-0.02 157.89,0.15 1.58,1.51 1.58,1.34 "/>
    <polygon id="_10" class="fil9" points="157.89,0.09 157.89,0.26 1.58,1.62 1.58,1.45 "/>
    <polygon id="_11" class="fil10" points="157.89,0.2 157.89,0.37 1.58,1.73 1.58,1.56 "/>
    <polygon id="_12" class="fil11" points="157.89,0.31 157.89,0.48 1.58,1.84 1.58,1.67 "/>
    <polygon id="_13" class="fil11" points="157.89,0.42 157.9,0.59 1.59,1.95 1.58,1.79 "/>
    <polygon id="_14" class="fil12" points="157.89,0.53 157.9,0.7 1.59,2.06 1.59,1.9 "/>
    <polygon id="_15" class="fil13" points="157.9,0.64 157.9,0.81 1.59,2.17 1.59,2.01 "/>
    <polygon id="_16" class="fil14" points="157.9,0.76 157.9,0.92 1.59,2.29 1.59,2.12 "/>
    <polygon id="_17" class="fil15" points="157.9,0.87 157.9,1.03 1.59,2.4 1.59,2.23 "/>
    <polygon id="_18" class="fil16" points="157.9,0.98 157.9,1.14 1.59,2.51 1.59,2.34 "/>
    <polygon id="_19" class="fil17" points="157.9,1.09 157.9,1.26 1.59,2.62 1.59,2.45 "/>
    <polygon id="_20" class="fil17" points="157.9,1.2 157.9,1.37 1.59,2.73 1.59,2.56 "/>
    <polygon id="_21" class="fil18" points="157.9,1.31 157.9,1.48 1.59,2.84 1.59,2.67 "/>
    <polygon id="_22" class="fil19" points="157.9,1.42 157.9,1.59 1.59,2.95 1.59,2.79 "/>
    <polygon id="_23" class="fil20" points="157.9,1.53 157.9,1.7 1.59,3.06 1.59,2.9 "/>
    <polygon id="_24" class="fil21" points="157.9,1.64 157.91,1.81 1.6,3.17 1.59,3.01 "/>
    <polygon id="_25" class="fil21" points="157.9,1.76 157.91,1.92 1.6,3.29 1.6,3.12 "/>
    <polygon id="_26" class="fil22" points="157.91,1.87 157.91,2.03 1.6,3.4 1.6,3.23 "/>
    <polygon id="_27" class="fil22" points="157.91,1.98 157.91,2.14 1.6,3.51 1.6,3.34 "/>
    <polygon id="_28" class="fil23" points="157.91,2.09 157.91,2.26 1.6,3.62 1.6,3.45 "/>
    <polygon id="_29" class="fil23" points="157.91,2.2 157.91,2.37 1.6,3.73 1.6,3.56 "/>
    <polygon id="_30" class="fil24" points="157.91,2.31 157.91,2.48 1.6,3.84 1.6,3.67 "/>
    <polygon id="_31" class="fil25" points="157.91,2.42 157.91,2.59 1.6,3.95 1.6,3.79 "/>
    <polygon id="_32" class="fil26" points="157.91,2.53 157.91,2.7 1.6,4.06 1.6,3.9 "/>
    <polygon id="_33" class="fil27" points="157.91,2.64 157.91,2.81 1.61,4.17 1.6,4.01 "/>
    <polygon id="_34" class="fil27" points="157.91,2.76 157.92,2.92 1.61,4.29 1.6,4.12 "/>
    <polygon id="_35" class="fil28" points="157.91,2.87 157.92,3.03 1.61,4.4 1.61,4.23 "/>
    <polygon id="_36" class="fil28" points="157.92,2.98 157.92,3.14 1.61,4.51 1.61,4.34 "/>
    <polygon id="_37" class="fil29" points="157.92,3.09 157.92,3.26 1.61,4.62 1.61,4.45 "/>
    <polygon id="_38" class="fil30" points="157.92,3.2 157.92,3.37 1.61,4.73 1.61,4.56 "/>
    <polygon id="_39" class="fil31" points="157.92,3.31 157.92,3.48 1.61,4.84 1.61,4.67 "/>
    <polygon id="_40" class="fil32" points="157.92,3.42 157.92,3.59 1.61,4.95 1.61,4.79 "/>
    <polygon id="_41" class="fil33" points="157.92,3.53 157.92,3.7 1.61,5.06 1.61,4.9 "/>
    <polygon id="_42" class="fil33" points="157.92,3.64 157.92,3.81 1.61,5.17 1.61,5.01 "/>
    <polygon id="_43" class="fil34" points="157.92,3.76 157.92,3.92 1.61,5.29 1.61,5.12 "/>
    <polygon id="_44" class="fil35" points="157.92,3.87 157.92,4.03 1.62,5.4 1.61,5.23 "/>
    <polygon id="_45" class="fil36" points="157.92,3.98 157.93,4.14 1.62,5.51 1.61,5.34 "/>
    <polygon id="_46" class="fil37" points="157.92,4.09 157.93,4.26 1.62,5.62 1.62,5.45 "/>
    <polygon id="_47" class="fil38" points="157.93,4.2 157.93,4.37 1.62,5.73 1.62,5.56 "/>
    <polygon id="_48" class="fil39" points="157.93,4.31 157.93,4.48 1.62,5.84 1.62,5.67 "/>
    <polygon id="_49" class="fil40" points="157.93,4.42 157.93,4.59 1.62,5.95 1.62,5.79 "/>
    <polygon id="_50" class="fil41" points="157.93,4.53 157.93,4.7 1.62,6.06 1.62,5.9 "/>
    <polygon id="_51" class="fil41" points="157.93,4.64 157.93,4.81 1.62,6.17 1.62,6.01 "/>
    <polygon id="_52" class="fil42" points="157.93,4.76 157.93,4.92 1.62,6.28 1.62,6.12 "/>
    <polygon id="_53" class="fil43" points="157.93,4.87 157.93,5.03 1.62,6.4 1.62,6.23 "/>
    <polygon id="_54" class="fil43" points="157.93,4.98 157.93,5.14 1.63,6.51 1.62,6.34 "/>
    <polygon id="_55" class="fil44" points="157.93,5.09 157.94,5.26 1.63,6.62 1.62,6.45 "/>
    <polygon id="_56" class="fil44" points="157.94,5.2 157.94,5.37 1.63,6.73 1.63,6.56 "/>
    <polygon id="_57" class="fil45" points="157.94,5.31 157.94,5.48 1.63,6.84 1.63,6.67 "/>
    <polygon id="_58" class="fil45" points="157.94,5.42 157.94,5.59 1.63,6.95 1.63,6.79 "/>
    <polygon id="_59" class="fil46" points="157.94,5.53 157.94,5.7 1.63,7.06 1.63,6.9 "/>
    <polygon id="_60" class="fil46" points="157.94,5.64 157.94,5.81 1.63,7.17 1.63,7.01 "/>
    <polygon id="_61" class="fil47" points="157.94,5.76 157.94,5.92 1.63,7.29 1.63,7.12 "/>
    <polygon id="_62" class="fil48" points="157.94,5.87 157.94,6.03 1.63,7.4 1.63,7.23 "/>
    <polygon id="_63" class="fil48" points="157.94,5.98 157.94,6.14 1.63,7.51 1.63,7.34 "/>
    <polygon id="_64" class="fil49" points="157.94,6.09 157.94,6.26 1.63,7.62 1.63,7.45 "/>
    <polygon id="_65" class="fil49" points="157.94,6.2 157.94,6.37 1.64,7.73 1.63,7.56 "/>
    <polygon id="_66" class="fil50" points="157.94,6.31 157.95,6.48 1.64,7.84 1.64,7.67 "/>
    <polygon id="_67" class="fil51" points="157.95,6.42 157.95,6.59 1.64,7.95 1.64,7.78 "/>
    <polygon id="_68" class="fil52" points="157.95,6.53 157.95,6.7 1.64,8.06 1.64,7.9 "/>
    <polygon id="_69" class="fil53" points="157.95,6.64 157.95,6.81 1.64,8.17 1.64,8.01 "/>
    <polygon id="_70" class="fil54" points="157.95,6.75 157.95,6.92 1.64,8.29 1.64,8.12 "/>
    <polygon id="_71" class="fil55" points="157.95,6.87 157.95,7.03 1.64,8.4 1.64,8.23 "/>
    <polygon id="_72" class="fil56" points="157.95,6.98 157.95,7.14 1.64,8.51 1.64,8.34 "/>
    <polygon id="_73" class="fil57" points="157.95,7.09 157.95,7.26 1.64,8.62 1.64,8.45 "/>
    <polygon id="_74" class="fil58" points="157.95,7.2 157.95,7.37 1.64,8.73 1.64,8.56 "/>
    <polygon id="_75" class="fil59" points="157.95,7.31 157.95,7.48 1.65,8.84 1.64,8.67 "/>
    <polygon id="_76" class="fil60" points="157.95,7.42 157.96,7.59 1.65,8.95 1.65,8.79 "/>
    <polygon id="_77" class="fil61" points="157.96,7.53 157.96,7.7 1.65,9.06 1.65,8.9 "/>
    <polygon id="_78" class="fil61" points="157.96,7.64 157.96,7.81 1.65,9.17 1.65,9.01 "/>
    <polygon id="_79" class="fil62" points="157.96,7.76 157.96,7.92 1.65,9.28 1.65,9.12 "/>
    <polygon id="_80" class="fil63" points="157.96,7.87 157.96,8.03 1.65,9.4 1.65,9.23 "/>
    <polygon id="_81" class="fil64" points="157.96,7.98 157.96,8.14 1.65,9.51 1.65,9.34 "/>
    <polygon id="_82" class="fil65" points="157.96,8.09 157.96,8.25 1.65,9.62 1.65,9.45 "/>
    <polygon id="_83" class="fil66" points="157.96,8.2 157.96,8.37 1.65,9.73 1.65,9.56 "/>
    <polygon id="_84" class="fil67" points="157.96,8.31 157.96,8.48 1.65,9.84 1.65,9.67 "/>
    <polygon id="_85" class="fil67" points="157.96,8.42 157.96,8.59 1.65,9.95 1.65,9.79 "/>
    <polygon id="_86" class="fil68" points="157.96,8.53 157.96,8.7 1.66,10.06 1.65,9.9 "/>
    <polygon id="_87" class="fil68" points="157.96,8.64 157.97,8.81 1.66,10.17 1.66,10.01 "/>
    <polygon id="_88" class="fil69" points="157.97,8.76 157.97,8.92 1.66,10.29 1.66,10.12 "/>
    <polygon id="_89" class="fil69" points="157.97,8.87 157.97,9.03 1.66,10.4 1.66,10.23 "/>
    <polygon id="_90" class="fil69" points="157.97,8.98 157.97,9.14 1.66,10.51 1.66,10.34 "/>
    <polygon id="_91" class="fil68" points="157.97,9.09 157.97,9.26 1.66,10.62 1.66,10.45 "/>
    <polygon id="_92" class="fil68" points="157.97,9.2 157.97,9.37 1.66,10.73 1.66,10.56 "/>
    <polygon id="_93" class="fil67" points="157.97,9.31 157.97,9.48 1.66,10.84 1.66,10.67 "/>
    <polygon id="_94" class="fil67" points="157.97,9.42 157.97,9.59 1.66,10.95 1.66,10.78 "/>
    <polygon id="_95" class="fil66" points="157.97,9.53 157.97,9.7 1.67,11.06 1.66,10.9 "/>
    <polygon id="_96" class="fil65" points="157.97,9.64 157.98,9.81 1.67,11.17 1.66,11.01 "/>
    <polygon id="_97" class="fil64" points="157.97,9.75 157.98,9.92 1.67,11.28 1.67,11.12 "/>
    <polygon id="_98" class="fil63" points="157.98,9.87 157.98,10.03 1.67,11.4 1.67,11.23 "/>
    <polygon id="_99" class="fil62" points="157.98,9.98 157.98,10.14 1.67,11.51 1.67,11.34 "/>
    <polygon id="_100" class="fil61" points="157.98,10.09 157.98,10.26 1.67,11.62 1.67,11.45 "/>
    <polygon id="_101" class="fil61" points="157.98,10.2 157.98,10.37 1.67,11.73 1.67,11.56 "/>
    <polygon id="_102" class="fil60" points="157.98,10.31 157.98,10.48 1.67,11.84 1.67,11.67 "/>
    <polygon id="_103" class="fil59" points="157.98,10.42 157.98,10.59 1.67,11.95 1.67,11.79 "/>
    <polygon id="_104" class="fil58" points="157.98,10.53 157.98,10.7 1.67,12.06 1.67,11.9 "/>
    <polygon id="_105" class="fil57" points="157.98,10.64 157.98,10.81 1.67,12.17 1.67,12.01 "/>
    <polygon id="_106" class="fil56" points="157.98,10.76 157.99,10.92 1.68,12.28 1.67,12.12 "/>
    <polygon id="_107" class="fil55" points="157.98,10.87 157.99,11.03 1.68,12.4 1.67,12.23 "/>
    <polygon id="_108" class="fil54" points="157.99,10.98 157.99,11.14 1.68,12.51 1.68,12.34 "/>
    <polygon id="_109" class="fil53" points="157.99,11.09 157.99,11.25 1.68,12.62 1.68,12.45 "/>
    <polygon id="_110" class="fil52" points="157.99,11.2 157.99,11.37 1.68,12.73 1.68,12.56 "/>
    <polygon id="_111" class="fil51" points="157.99,11.31 157.99,11.48 1.68,12.84 1.68,12.67 "/>
    <polygon id="_112" class="fil50" points="157.99,11.42 157.99,11.59 1.68,12.95 1.68,12.78 "/>
    <polygon id="_113" class="fil49" points="157.99,11.53 157.99,11.7 1.68,13.06 1.68,12.9 "/>
    <polygon id="_114" class="fil49" points="157.99,11.64 157.99,11.81 1.68,13.17 1.68,13.01 "/>
    <polygon id="_115" class="fil48" points="157.99,11.75 157.99,11.92 1.68,13.29 1.68,13.12 "/>
    <polygon id="_116" class="fil48" points="157.99,11.87 157.99,12.03 1.69,13.4 1.68,13.23 "/>
    <polygon id="_117" class="fil47" points="157.99,11.98 158,12.14 1.69,13.51 1.68,13.34 "/>
    <polygon id="_118" class="fil46" points="157.99,12.09 158,12.26 1.69,13.62 1.69,13.45 "/>
    <polygon id="_119" class="fil46" points="158,12.2 158,12.37 1.69,13.73 1.69,13.56 "/>
    <polygon id="_120" class="fil45" points="158,12.31 158,12.48 1.69,13.84 1.69,13.67 "/>
    <polygon id="_121" class="fil45" points="158,12.42 158,12.59 1.69,13.95 1.69,13.78 "/>
    <polygon id="_122" class="fil44" points="158,12.53 158,12.7 1.69,14.06 1.69,13.9 "/>
    <polygon id="_123" class="fil44" points="158,12.64 158,12.81 1.69,14.17 1.69,14.01 "/>
    <polygon id="_124" class="fil43" points="158,12.75 158,12.92 1.69,14.28 1.69,14.12 "/>
    <polygon id="_125" class="fil43" points="158,12.87 158,13.03 1.69,14.4 1.69,14.23 "/>
    <polygon id="_126" class="fil42" points="158,12.98 158,13.14 1.69,14.51 1.69,14.34 "/>
    <polygon id="_127" class="fil41" points="158,13.09 158.01,13.25 1.7,14.62 1.69,14.45 "/>
    <polygon id="_128" class="fil41" points="158.01,13.2 158.01,13.37 1.7,14.73 1.69,14.56 "/>
    <polygon id="_129" class="fil40" points="158.01,13.31 158.01,13.48 1.7,14.84 1.7,14.67 "/>
    <polygon id="_130" class="fil39" points="158.01,13.42 158.01,13.59 1.7,14.95 1.7,14.79 "/>
    <polygon id="_131" class="fil38" points="158.01,13.53 158.01,13.7 1.7,15.06 1.7,14.9 "/>
    <polygon id="_132" class="fil37" points="158.01,13.64 158.01,13.81 1.7,15.17 1.7,15.01 "/>
    <polygon id="_133" class="fil36" points="158.01,13.76 158.01,13.92 1.7,15.28 1.7,15.12 "/>
    <polygon id="_134" class="fil35" points="158.01,13.87 158.01,14.03 1.7,15.4 1.7,15.23 "/>
    <polygon id="_135" class="fil34" points="158.01,13.98 158.01,14.14 1.7,15.51 1.7,15.34 "/>
    <polygon id="_136" class="fil33" points="158.01,14.09 158.01,14.25 1.7,15.62 1.7,15.45 "/>
    <polygon id="_137" class="fil33" points="158.01,14.2 158.01,14.37 1.71,15.73 1.7,15.56 "/>
    <polygon id="_138" class="fil32" points="158.01,14.31 158.02,14.48 1.71,15.84 1.71,15.67 "/>
    <polygon id="_139" class="fil31" points="158.02,14.42 158.02,14.59 1.71,15.95 1.71,15.78 "/>
    <polygon id="_140" class="fil30" points="158.02,14.53 158.02,14.7 1.71,16.06 1.71,15.9 "/>
    <polygon id="_141" class="fil29" points="158.02,14.64 158.02,14.81 1.71,16.17 1.71,16.01 "/>
    <polygon id="_142" class="fil28" points="158.02,14.75 158.02,14.92 1.71,16.28 1.71,16.12 "/>
    <polygon id="_143" class="fil28" points="158.02,14.87 158.02,15.03 1.71,16.39 1.71,16.23 "/>
    <polygon id="_144" class="fil27" points="158.02,14.98 158.02,15.14 1.71,16.51 1.71,16.34 "/>
    <polygon id="_145" class="fil27" points="158.02,15.09 158.02,15.26 1.71,16.62 1.71,16.45 "/>
    <polygon id="_146" class="fil26" points="158.02,15.2 158.02,15.37 1.71,16.73 1.71,16.56 "/>
    <polygon id="_147" class="fil25" points="158.02,15.31 158.02,15.48 1.71,16.84 1.71,16.67 "/>
    <polygon id="_148" class="fil24" points="158.02,15.42 158.03,15.59 1.72,16.95 1.71,16.78 "/>
    <polygon id="_149" class="fil23" points="158.03,15.53 158.03,15.7 1.72,17.06 1.72,16.9 "/>
    <polygon id="_150" class="fil23" points="158.03,15.64 158.03,15.81 1.72,17.17 1.72,17.01 "/>
    <polygon id="_151" class="fil22" points="158.03,15.75 158.03,15.92 1.72,17.28 1.72,17.12 "/>
    <polygon id="_152" class="fil22" points="158.03,15.87 158.03,16.03 1.72,17.4 1.72,17.23 "/>
    <polygon id="_153" class="fil21" points="158.03,15.98 158.03,16.14 1.72,17.51 1.72,17.34 "/>
    <polygon id="_154" class="fil21" points="158.03,16.09 158.03,16.25 1.72,17.62 1.72,17.45 "/>
    <polygon id="_155" class="fil20" points="158.03,16.2 158.03,16.37 1.72,17.73 1.72,17.56 "/>
    <polygon id="_156" class="fil19" points="158.03,16.31 158.03,16.48 1.72,17.84 1.72,17.67 "/>
    <polygon id="_157" class="fil18" points="158.03,16.42 158.03,16.59 1.72,17.95 1.72,17.78 "/>
    <polygon id="_158" class="fil17" points="158.03,16.53 158.03,16.7 1.73,18.06 1.72,17.89 "/>
    <polygon id="_159" class="fil17" points="158.03,16.64 158.04,16.81 1.73,18.17 1.73,18.01 "/>
    <polygon id="_160" class="fil16" points="158.04,16.75 158.04,16.92 1.73,18.28 1.73,18.12 "/>
    <polygon id="_161" class="fil15" points="158.04,16.87 158.04,17.03 1.73,18.4 1.73,18.23 "/>
    <polygon id="_162" class="fil14" points="158.04,16.98 158.04,17.14 1.73,18.51 1.73,18.34 "/>
    <polygon id="_163" class="fil13" points="158.04,17.09 158.04,17.25 1.73,18.62 1.73,18.45 "/>
    <polygon id="_164" class="fil12" points="158.04,17.2 158.04,17.37 1.73,18.73 1.73,18.56 "/>
    <polygon id="_165" class="fil11" points="158.04,17.31 158.04,17.48 1.73,18.84 1.73,18.67 "/>
    <polygon id="_166" class="fil11" points="158.04,17.42 158.04,17.59 1.73,18.95 1.73,18.78 "/>
    <polygon id="_167" class="fil10" points="158.04,17.53 158.04,17.7 1.74,19.06 1.73,18.9 "/>
    <polygon id="_168" class="fil9" points="158.04,17.64 158.05,17.81 1.74,19.17 1.73,19.01 "/>
    <polygon id="_169" class="fil8" points="158.04,17.75 158.05,17.92 1.74,19.28 1.74,19.12 "/>
    <polygon id="_170" class="fil7" points="158.05,17.87 158.05,18.03 1.74,19.39 1.74,19.23 "/>
    <polygon id="_171" class="fil6" points="158.05,17.98 158.05,18.14 1.74,19.51 1.74,19.34 "/>
    <polygon id="_172" class="fil5" points="158.05,18.09 158.05,18.25 1.74,19.62 1.74,19.45 "/>
    <polygon id="_173" class="fil4" points="158.05,18.2 158.05,18.37 1.74,19.73 1.74,19.56 "/>
    <polygon id="_174" class="fil4" points="158.05,18.31 158.05,18.48 1.74,19.84 1.74,19.67 "/>
    <polygon id="_175" class="fil3" points="158.05,18.42 158.05,18.59 1.74,19.95 1.74,19.78 "/>
    <polygon id="_176" class="fil2" points="158.05,18.53 158.05,18.7 1.74,20.06 1.74,19.9 "/>
    <polygon id="_177" class="fil1" points="158.05,18.64 158.05,18.81 1.74,20.17 1.74,20.01 "/>
    <polygon id="_178" class="fil0" points="158.05,18.75 158.05,18.92 1.75,20.28 1.74,20.12 "/>
    <polygon id="_179" class="fil0" points="158.05,18.87 158.06,19.03 1.75,20.4 1.74,20.23 "/>
    <polygon id="_180" class="fil70" points="158.05,18.98 158.06,19.14 1.75,20.51 1.75,20.34 "/>
    <polygon id="_181" class="fil70" points="158.06,19.09 158.06,19.25 1.75,20.62 1.75,20.45 "/>
    <polygon id="_182" class="fil71" points="158.06,19.2 158.06,19.37 1.75,20.73 1.75,20.56 "/>
    <polygon id="_183" class="fil71" points="158.06,19.31 158.06,19.48 1.75,20.84 1.75,20.67 "/>
    <polygon id="_184" class="fil72" points="158.06,19.42 158.06,19.59 1.75,20.95 1.75,20.78 "/>
    <polygon id="_185" class="fil73" points="158.06,19.53 158.06,19.7 1.75,21.06 1.75,20.89 "/>
    <polygon id="_186" class="fil73" points="158.06,19.64 158.06,19.81 1.75,21.17 1.75,21.01 "/>
    <polygon id="_187" class="fil74" points="158.06,19.75 158.06,19.92 1.75,21.28 1.75,21.12 "/>
    <polygon id="_188" class="fil75" points="158.06,19.87 158.06,20.03 1.76,21.39 1.75,21.23 "/>
    <polygon id="_189" class="fil76" points="158.06,19.98 158.07,20.14 1.76,21.51 1.75,21.34 "/>
    <polygon id="_190" class="fil76" points="158.06,20.09 158.07,20.25 1.76,21.62 1.76,21.45 "/>
    <polygon id="_191" class="fil77" points="158.07,20.2 158.07,20.37 1.76,21.73 1.76,21.56 "/>
    <polygon id="_192" class="fil78" points="158.07,20.31 158.07,20.48 1.76,21.84 1.76,21.67 "/>
    <polygon id="_193" class="fil78" points="158.07,20.42 158.07,20.59 1.76,21.95 1.76,21.78 "/>
    <polygon id="_194" class="fil79" points="158.07,20.53 158.07,20.7 1.76,22.06 1.76,21.9 "/>
    <polygon id="_195" class="fil79" points="158.07,20.64 158.07,20.81 1.76,22.17 1.76,22.01 "/>
    <polygon id="_196" class="fil80" points="158.07,20.75 158.07,20.92 1.76,22.28 1.76,22.12 "/>
    <polygon id="_197" class="fil81" points="158.07,20.87 158.07,21.03 1.76,22.39 1.76,22.23 "/>
    <polygon id="_198" class="fil82" points="158.07,20.98 158.07,21.14 1.76,22.51 1.76,22.34 "/>
    <polygon id="_199" class="fil83" points="158.07,21.09 158.07,21.25 1.77,22.62 1.76,22.45 "/>
    <polygon id="_200" class="fil84" points="158.07,21.2 158.08,21.37 1.77,22.73 1.76,22.56 "/>
    <polygon id="_201" class="fil85" points="158.08,21.31 158.08,21.48 1.77,22.84 1.77,22.67 "/>
    <polygon id="_202" class="fil86" points="158.08,21.42 158.08,21.59 1.77,22.95 1.77,22.78 "/>
    <polygon id="_203" class="fil87" points="158.08,21.53 158.08,21.7 1.77,23.06 1.77,22.89 "/>
    <polygon id="_204" class="fil88" points="158.08,21.64 158.08,21.81 1.77,23.17 1.77,23.01 "/>
    <polygon id="_205" class="fil89" points="158.08,21.75 158.08,21.92 1.77,23.28 1.77,23.12 "/>
    <polygon id="_206" class="fil90" points="158.08,21.86 158.08,22.03 1.77,23.4 1.77,23.23 "/>
    <polygon id="_207" class="fil91" points="158.08,21.98 158.08,22.14 1.77,23.51 1.77,23.34 "/>
    <polygon id="_208" class="fil91" points="158.08,22.09 158.08,22.25 1.77,23.62 1.77,23.45 "/>
    <polygon id="_209" class="fil92" points="158.08,22.2 158.08,22.37 1.78,23.73 1.77,23.56 "/>
    <polygon id="_210" class="fil92" points="158.08,22.31 158.09,22.48 1.78,23.84 1.78,23.67 "/>
    <polygon id="_211" class="fil93" points="158.09,22.42 158.09,22.59 1.78,23.95 1.78,23.78 "/>
    <polygon id="_212" class="fil93" points="158.09,22.53 158.09,22.7 1.78,24.06 1.78,23.89 "/>
    <polygon id="_213" class="fil94" points="158.09,22.64 158.09,22.81 1.78,24.17 1.78,24.01 "/>
    <polygon id="_214" class="fil95" points="158.09,22.75 158.09,22.92 1.78,24.28 1.78,24.12 "/>
    <polygon id="_215" class="fil96" points="158.09,22.87 158.09,23.03 1.78,24.39 1.78,24.23 "/>
    <polygon id="_216" class="fil97" points="158.09,22.98 158.09,23.14 1.78,24.51 1.78,24.34 "/>
    <polygon id="_217" class="fil97" points="158.09,23.09 158.09,23.25 1.78,24.62 1.78,24.45 "/>
    <polygon id="_218" class="fil98" points="158.09,23.2 158.09,23.36 1.78,24.73 1.78,24.56 "/>
    <polygon id="_219" class="fil99" points="158.09,23.31 158.09,23.48 1.78,24.84 1.78,24.67 "/>
    <polygon id="_220" class="fil100" points="158.09,23.42 158.09,23.59 1.79,24.95 1.78,24.78 "/>
    <polygon id="_221" class="fil101" points="158.09,23.53 158.1,23.7 1.79,25.06 1.79,24.9 "/>
    <polygon id="_222" class="fil101" points="158.1,23.64 158.1,23.81 1.79,25.17 1.79,25.01 "/>
    <polygon id="_223" class="fil102" points="158.1,23.75 158.1,23.92 1.79,25.28 1.79,25.12 "/>
    <polygon id="_224" class="fil102" points="158.1,23.87 158.1,24.03 1.79,25.4 1.79,25.23 "/>
    <polygon id="_225" class="fil103" points="158.1,23.98 158.1,24.14 1.79,25.51 1.79,25.34 "/>
    <polygon id="_226" class="fil103" points="158.1,24.09 158.1,24.25 1.79,25.62 1.79,25.45 "/>
    <polygon id="_227" class="fil104" points="158.1,24.2 158.1,24.37 1.79,25.73 1.79,25.56 "/>
    <polygon id="_228" class="fil105" points="158.1,24.31 158.1,24.48 1.79,25.84 1.79,25.67 "/>
    <polygon id="_229" class="fil106" points="158.1,24.42 158.1,24.59 1.79,25.95 1.79,25.78 "/>
    <polygon id="_230" class="fil107" points="158.1,24.53 158.11,24.7 1.8,26.06 1.79,25.89 "/>
    <polygon id="_231" class="fil108" points="158.1,24.64 158.11,24.81 1.8,26.17 1.8,26.01 "/>
    <polygon id="_232" class="fil109" points="158.11,24.75 158.11,24.92 1.8,26.28 1.8,26.12 "/>
    <polygon id="_233" class="fil110" points="158.11,24.86 158.11,25.03 1.8,26.39 1.8,26.23 "/>
    <polygon id="_234" class="fil111" points="158.11,24.98 158.11,25.14 1.8,26.51 1.8,26.34 "/>
    <polygon id="_235" class="fil112" points="158.11,25.09 158.11,25.25 1.8,26.62 1.8,26.45 "/>
    <polygon id="_236" class="fil113" points="158.11,25.2 158.11,25.37 1.8,26.73 1.8,26.56 "/>
    <polygon id="_237" class="fil114" points="158.11,25.31 158.11,25.48 1.8,26.84 1.8,26.67 "/>
    <polygon id="_238" class="fil115" points="158.11,25.42 158.11,25.59 1.8,26.95 1.8,26.78 "/>
    <polygon id="_239" class="fil115" points="158.11,25.53 158.11,25.7 1.8,27.06 1.8,26.9 "/>
    <polygon id="_240" class="fil116" points="158.11,25.64 158.11,25.81 1.8,27.17 1.8,27.01 "/>
    <polygon id="_241" class="fil116" points="158.11,25.75 158.12,25.92 1.81,27.28 1.8,27.12 "/>
    <polygon id="_242" class="fil117" points="158.11,25.87 158.12,26.03 1.81,27.39 1.81,27.23 "/>
    <polygon id="_243" class="fil118" points="158.12,25.98 158.12,26.14 1.81,27.51 1.81,27.34 "/>
    <polygon id="_244" class="fil118" points="158.12,26.09 158.12,26.25 1.81,27.62 1.81,27.45 "/>
    <polygon id="_245" class="fil119" points="158.12,26.2 158.12,26.36 1.81,27.73 1.81,27.56 "/>
    <polygon id="_246" class="fil120" points="158.12,26.31 158.12,26.48 1.81,27.84 1.81,27.67 "/>
    <polygon id="_247" class="fil121" points="158.12,26.42 158.12,26.59 1.81,27.95 1.81,27.78 "/>
    <polygon id="_248" class="fil121" points="158.12,26.53 158.12,26.7 1.81,28.06 1.81,27.89 "/>
    <polygon id="_249" class="fil122" points="158.12,26.64 158.12,26.81 1.81,28.17 1.81,28.01 "/>
    <polygon id="_250" class="fil123" points="158.12,26.75 158.12,26.92 1.82,28.28 1.81,28.12 "/>
    <polygon id="_251" class="fil123" points="158.12,26.86 158.13,27.03 1.82,28.4 1.81,28.23 "/>
    <polygon id="_252" class="fil124" points="158.12,26.98 158.13,27.14 1.82,28.51 1.82,28.34 "/>
    <polygon id="_253" class="fil124" points="158.13,27.09 158.13,27.25 1.82,28.62 1.82,28.45 "/>
    <polygon id="_254" class="fil125" points="158.13,27.2 158.13,27.37 1.82,28.73 1.82,28.56 "/>
    <polygon id="_255" class="fil125" points="158.13,27.31 158.13,27.48 1.82,28.84 1.82,28.67 "/>
    <polygon id="_256" class="fil126" points="158.13,27.42 158.13,27.59 1.82,28.95 1.82,28.78 "/>
    <polygon id="_257" class="fil127" points="158.13,27.53 158.13,27.7 1.82,29.06 1.82,28.89 "/>
    <polygon id="_258" class="fil128" points="158.13,27.64 158.13,27.81 1.82,29.17 1.82,29.01 "/>
    <polygon id="_259" class="fil129" points="158.13,27.75 158.13,27.92 1.82,29.28 1.82,29.12 "/>
    <polygon id="_260" class="fil129" points="158.13,27.86 158.13,28.03 1.82,29.39 1.82,29.23 "/>
    <polygon id="_261" class="fil130" points="158.13,27.98 158.14,28.14 1.83,29.51 1.82,29.34 "/>
    <polygon id="_262" class="fil131" points="158.14,28.09 158.14,28.25 1.83,29.62 1.82,29.45 "/>
    <polygon id="_263" class="fil132" points="158.14,28.2 158.14,28.36 1.83,29.73 1.83,29.56 "/>
    <polygon id="_264" class="fil133" points="158.14,28.31 158.14,28.48 1.83,29.84 1.83,29.67 "/>
    <polygon id="_265" class="fil134" points="158.14,28.42 158.14,28.59 1.83,29.95 1.83,29.78 "/>
    <polygon id="_266" class="fil135" points="158.14,28.53 158.14,28.7 1.83,30.06 1.83,29.9 "/>
    <polygon id="_267" class="fil136" points="158.14,28.64 158.14,28.81 1.83,30.17 1.83,30.01 "/>
    <polygon id="_268" class="fil136" points="158.14,28.75 158.14,28.92 1.83,30.28 1.83,30.12 "/>
    <polygon id="_269" class="fil137" points="158.14,28.87 158.14,29.03 1.83,30.39 1.83,30.23 "/>
    <polygon id="_270" class="fil138" points="158.14,28.98 158.14,29.14 1.83,30.51 1.83,30.34 "/>
    <polygon id="_271" class="fil139" points="158.14,29.09 158.14,29.25 1.84,30.62 1.83,30.45 "/>
    <polygon id="_272" class="fil140" points="158.14,29.2 158.15,29.36 1.84,30.73 1.84,30.56 "/>
    <polygon id="_273" class="fil141" points="158.15,29.31 158.15,29.48 1.84,30.84 1.84,30.67 "/>
    <polygon id="_274" class="fil142" points="158.15,29.42 158.15,29.59 1.84,30.95 1.84,30.78 "/>
    <polygon id="_275" class="fil142" points="158.15,29.53 158.15,29.7 1.84,31.06 1.84,30.89 "/>
    <polygon id="_276" class="fil143" points="158.15,29.64 158.15,29.81 1.84,31.17 1.84,31.01 "/>
    <polygon id="_277" class="fil144" points="158.15,29.75 158.15,29.92 1.84,31.28 1.84,31.12 "/>
    <polygon id="_278" class="fil145" points="158.15,29.86 158.15,30.03 1.84,31.39 1.84,31.23 "/>
    <polygon id="_279" class="fil146" points="158.15,29.98 158.15,30.14 1.84,31.51 1.84,31.34 "/>
    <polygon id="_280" class="fil146" points="158.15,30.09 158.15,30.25 1.84,31.62 1.84,31.45 "/>
    <polygon id="_281" class="fil147" points="158.15,30.2 158.15,30.37 1.84,31.73 1.84,31.56 "/>
    <polygon id="_282" class="fil147" points="158.15,30.31 158.16,30.48 1.85,31.84 1.84,31.67 "/>
    <polygon id="_283" class="fil148" points="158.16,30.42 158.16,30.59 1.85,31.95 1.85,31.78 "/>
    <polygon id="_284" class="fil148" points="158.16,30.53 158.16,30.7 1.85,32.06 1.85,31.89 "/>
    <polygon id="_285" class="fil149" points="158.16,30.64 158.16,30.81 1.85,32.17 1.85,32.01 "/>
    <polygon id="_286" class="fil150" points="158.16,30.75 158.16,30.92 1.85,32.28 1.85,32.12 "/>
    <polygon id="_287" class="fil151" points="158.16,30.86 158.16,31.03 1.85,32.39 1.85,32.23 "/>
    <polygon id="_288" class="fil152" points="158.16,30.98 158.16,31.14 1.85,32.51 1.85,32.34 "/>
    <polygon id="_289" class="fil152" points="158.16,31.09 158.16,31.25 1.85,32.62 1.85,32.45 "/>
    <polygon id="_290" class="fil153" points="158.16,31.2 158.16,31.36 1.85,32.73 1.85,32.56 "/>
    <polygon id="_291" class="fil153" points="158.16,31.31 158.16,31.48 1.85,32.84 1.85,32.67 "/>
    <polygon id="_292" class="fil154" points="158.16,31.42 158.16,31.59 1.86,32.95 1.85,32.78 "/>
    <polygon id="_293" class="fil155" points="158.16,31.53 158.17,31.7 1.86,33.06 1.86,32.89 "/>
    <polygon id="_294" class="fil156" points="158.17,31.64 158.17,31.81 1.86,33.17 1.86,33 "/>
    <polygon id="_295" class="fil157" points="158.17,31.75 158.17,31.92 1.86,33.28 1.86,33.12 "/>
    <polygon id="_296" class="fil158" points="158.17,31.86 158.17,32.03 1.86,33.39 1.86,33.23 "/>
    <polygon id="_297" class="fil158" points="158.17,31.98 158.17,32.14 1.86,33.51 1.86,33.34 "/>
    <polygon id="_298" class="fil159" points="158.17,32.09 158.17,32.25 1.86,33.62 1.86,33.45 "/>
    <polygon id="_299" class="fil160" points="158.17,32.2 158.17,32.36 1.86,33.73 1.86,33.56 "/>
    <polygon id="_300" class="fil161" points="158.17,32.31 158.17,32.48 1.86,33.84 1.86,33.67 "/>
    <polygon id="_301" class="fil162" points="158.17,32.42 158.17,32.59 1.86,33.95 1.86,33.78 "/>
    <polygon id="_302" class="fil163" points="158.17,32.53 158.18,32.7 1.86,34.06 1.86,33.89 "/>
    <polygon id="_303" class="fil164" points="158.17,32.64 158.18,32.81 1.87,34.17 1.86,34.01 "/>
    <polygon id="_304" class="fil165" points="158.18,32.75 158.18,32.92 1.87,34.28 1.87,34.12 "/>
    <polygon id="_305" class="fil166" points="158.18,32.86 158.18,33.03 1.87,34.39 1.87,34.23 "/>
    <polygon id="_306" class="fil166" points="158.18,32.98 158.18,33.14 1.87,34.5 1.87,34.34 "/>
    <polygon id="_307" class="fil167" points="158.18,33.09 158.18,33.25 1.87,34.62 1.87,34.45 "/>
    <polygon id="_308" class="fil168" points="158.18,33.2 158.18,33.36 1.87,34.73 1.87,34.56 "/>
    <polygon id="_309" class="fil168" points="158.18,33.31 158.18,33.47 1.87,34.84 1.87,34.67 "/>
    <polygon id="_310" class="fil169" points="158.18,33.42 158.18,33.59 1.87,34.95 1.87,34.78 "/>
    <polygon id="_311" class="fil169" points="158.18,33.53 158.18,33.7 1.87,35.06 1.87,34.89 "/>
    <polygon id="_312" class="fil170" points="158.18,33.64 158.18,33.81 1.88,35.17 1.87,35.01 "/>
    <polygon id="_313" class="fil170" points="158.18,33.75 158.19,33.92 1.88,35.28 1.87,35.12 "/>
    <polygon id="_314" class="fil171" points="158.18,33.86 158.19,34.03 1.88,35.39 1.88,35.23 "/>
    <polygon id="_315" class="fil171" points="158.19,33.98 158.19,34.14 1.88,35.51 1.88,35.34 "/>
    <polygon id="_316" class="fil172" points="158.19,34.09 158.19,34.25 1.88,35.62 1.88,35.45 "/>
    <polygon id="_317" class="fil173" points="158.19,34.2 158.19,34.36 1.88,35.73 1.88,35.56 "/>
    <polygon id="_318" class="fil173" points="158.19,34.31 158.19,34.48 1.88,35.84 1.88,35.67 "/>
    <polygon id="_319" class="fil174" points="158.19,34.42 158.19,34.59 1.88,35.95 1.88,35.78 "/>
    <polygon id="_320" class="fil174" points="158.19,34.53 158.19,34.7 1.88,36.06 1.88,35.89 "/>
    <polygon id="_321" class="fil175" points="158.19,34.64 158.19,34.81 1.88,36.17 1.88,36 "/>
    <polygon id="_322" class="fil176" points="158.19,34.75 158.19,34.92 1.89,36.28 1.88,36.12 "/>
    <polygon id="_323" class="fil177" points="158.19,34.86 158.2,35.03 1.89,36.39 1.88,36.23 "/>
    <polygon id="_324" class="fil178" points="158.19,34.97 158.2,35.14 1.89,36.51 1.89,36.34 "/>
    <polygon id="_325" class="fil179" points="158.2,35.09 158.2,35.25 1.89,36.62 1.89,36.45 "/>
    <polygon id="_326" class="fil180" points="158.2,35.2 158.2,35.36 1.89,36.73 1.89,36.56 "/>
    <polygon id="_327" class="fil181" points="158.2,35.31 158.2,35.48 1.89,36.84 1.89,36.67 "/>
    <polygon id="_328" class="fil182" points="158.2,35.42 158.2,35.59 1.89,36.95 1.89,36.78 "/>
    <polygon id="_329" class="fil183" points="158.2,35.53 158.2,35.7 1.89,37.06 1.89,36.89 "/>
    <polygon id="_330" class="fil184" points="158.2,35.64 158.2,35.81 1.89,37.17 1.89,37.01 "/>
    <polygon id="_331" class="fil185" points="158.2,35.75 158.2,35.92 1.89,37.28 1.89,37.12 "/>
    <polygon id="_332" class="fil186" points="158.2,35.86 158.2,36.03 1.89,37.39 1.89,37.23 "/>
    <polygon id="_333" class="fil186" points="158.2,35.98 158.2,36.14 1.9,37.5 1.89,37.34 "/>
    <polygon id="_334" class="fil187" points="158.2,36.09 158.21,36.25 1.9,37.62 1.89,37.45 "/>
    <polygon id="_335" class="fil188" points="158.2,36.2 158.21,36.36 1.9,37.73 1.9,37.56 "/>
    <polygon id="_336" class="fil189" points="158.21,36.31 158.21,36.47 1.9,37.84 1.9,37.67 "/>
    <polygon id="_337" class="fil190" points="158.21,36.42 158.21,36.59 1.9,37.95 1.9,37.78 "/>
    <polygon id="_338" class="fil191" points="158.21,36.53 158.21,36.7 1.9,38.06 1.9,37.89 "/>
    <polygon id="_339" class="fil192" points="158.21,36.64 158.21,36.81 1.9,38.17 1.9,38 "/>
    <polygon id="_340" class="fil192" points="158.21,36.75 158.21,36.92 1.9,38.28 1.9,38.12 "/>
    <polygon id="_341" class="fil193" points="158.21,36.86 158.21,37.03 1.9,38.39 1.9,38.23 "/>
    <polygon id="_342" class="fil193" points="158.21,36.98 158.21,37.14 1.9,38.51 1.9,38.34 "/>
    <polygon id="_343" class="fil194" points="158.21,37.09 158.21,37.25 1.91,38.62 1.9,38.45 "/>
    <polygon id="_344" class="fil194" points="158.21,37.2 158.22,37.36 1.91,38.73 1.91,38.56 "/>
    <polygon id="_345" class="fil194" points="158.22,37.31 158.22,37.48 1.91,38.84 1.91,38.67 "/>
    <polygon id="_346" class="fil193" points="158.22,37.42 158.22,37.59 1.91,38.95 1.91,38.78 "/>
    <polygon id="_347" class="fil193" points="158.22,37.53 158.22,37.7 1.91,39.06 1.91,38.89 "/>
    <polygon id="_348" class="fil192" points="158.22,37.64 158.22,37.81 1.91,39.17 1.91,39 "/>
    <polygon id="_349" class="fil192" points="158.22,37.75 158.22,37.92 1.91,39.28 1.91,39.12 "/>
    <polygon id="_350" class="fil191" points="158.22,37.86 158.22,38.03 1.91,39.39 1.91,39.23 "/>
    <polygon id="_351" class="fil190" points="158.22,37.97 158.22,38.14 1.91,39.5 1.91,39.34 "/>
    <polygon id="_352" class="fil189" points="158.22,38.09 158.22,38.25 1.91,39.62 1.91,39.45 "/>
    <polygon id="_353" class="fil188" points="158.22,38.2 158.22,38.36 1.91,39.73 1.91,39.56 "/>
    <polygon id="_354" class="fil187" points="158.22,38.31 158.22,38.47 1.92,39.84 1.91,39.67 "/>
    <polygon id="_355" class="fil186" points="158.22,38.42 158.23,38.59 1.92,39.95 1.92,39.78 "/>
    <polygon id="_356" class="fil186" points="158.23,38.53 158.23,38.7 1.92,40.06 1.92,39.89 "/>
    <polygon id="_357" class="fil185" points="158.23,38.64 158.23,38.81 1.92,40.17 1.92,40.01 "/>
    <polygon id="_358" class="fil184" points="158.23,38.75 158.23,38.92 1.92,40.28 1.92,40.12 "/>
    <polygon id="_359" class="fil183" points="158.23,38.86 158.23,39.03 1.92,40.39 1.92,40.23 "/>
    <polygon id="_360" class="fil182" points="158.23,38.98 158.23,39.14 1.92,40.5 1.92,40.34 "/>
    <polygon id="_361" class="fil181" points="158.23,39.09 158.23,39.25 1.92,40.62 1.92,40.45 "/>
    <polygon id="_362" class="fil180" points="158.23,39.2 158.23,39.36 1.92,40.73 1.92,40.56 "/>
    <polygon id="_363" class="fil179" points="158.23,39.31 158.23,39.47 1.92,40.84 1.92,40.67 "/>
    <polygon id="_364" class="fil178" points="158.23,39.42 158.23,39.59 1.93,40.95 1.92,40.78 "/>
    <polygon id="_365" class="fil177" points="158.23,39.53 158.24,39.7 1.93,41.06 1.93,40.89 "/>
    <polygon id="_366" class="fil176" points="158.24,39.64 158.24,39.81 1.93,41.17 1.93,41 "/>
    <polygon id="_367" class="fil175" points="158.24,39.75 158.24,39.92 1.93,41.28 1.93,41.12 "/>
    <polygon id="_368" class="fil174" points="158.24,39.86 158.24,40.03 1.93,41.39 1.93,41.23 "/>
    <polygon id="_369" class="fil174" points="158.24,39.97 158.24,40.14 1.93,41.51 1.93,41.34 "/>
    <polygon id="_370" class="fil173" points="158.24,40.09 158.24,40.25 1.93,41.62 1.93,41.45 "/>
    <polygon id="_371" class="fil173" points="158.24,40.2 158.24,40.36 1.93,41.73 1.93,41.56 "/>
    <polygon id="_372" class="fil172" points="158.24,40.31 158.24,40.48 1.93,41.84 1.93,41.67 "/>
    <polygon id="_373" class="fil171" points="158.24,40.42 158.24,40.59 1.93,41.95 1.93,41.78 "/>
    <polygon id="_374" class="fil171" points="158.24,40.53 158.24,40.7 1.93,42.06 1.93,41.89 "/>
    <polygon id="_375" class="fil170" points="158.24,40.64 158.24,40.81 1.94,42.17 1.93,42 "/>
    <polygon id="_376" class="fil170" points="158.24,40.75 158.25,40.92 1.94,42.28 1.94,42.12 "/>
    <polygon id="_377" class="fil169" points="158.25,40.86 158.25,41.03 1.94,42.39 1.94,42.23 "/>
    <polygon id="_378" class="fil169" points="158.25,40.98 158.25,41.14 1.94,42.5 1.94,42.34 "/>
    <polygon id="_379" class="fil168" points="158.25,41.09 158.25,41.25 1.94,42.62 1.94,42.45 "/>
    <polygon id="_380" class="fil168" points="158.25,41.2 158.25,41.36 1.94,42.73 1.94,42.56 "/>
    <polygon id="_381" class="fil167" points="158.25,41.31 158.25,41.47 1.94,42.84 1.94,42.67 "/>
    <polygon id="_382" class="fil166" points="158.25,41.42 158.25,41.59 1.94,42.95 1.94,42.78 "/>
    <polygon id="_383" class="fil166" points="158.25,41.53 158.25,41.7 1.94,43.06 1.94,42.89 "/>
    <polygon id="_384" class="fil165" points="158.25,41.64 158.25,41.81 1.95,43.17 1.94,43 "/>
    <polygon id="_385" class="fil164" points="158.25,41.75 158.26,41.92 1.95,43.28 1.94,43.12 "/>
    <polygon id="_386" class="fil163" points="158.25,41.86 158.26,42.03 1.95,43.39 1.95,43.23 "/>
    <polygon id="_387" class="fil162" points="158.26,41.98 158.26,42.14 1.95,43.5 1.95,43.34 "/>
    <polygon id="_388" class="fil161" points="158.26,42.09 158.26,42.25 1.95,43.62 1.95,43.45 "/>
    <polygon id="_389" class="fil160" points="158.26,42.2 158.26,42.36 1.95,43.73 1.95,43.56 "/>
    <polygon id="_390" class="fil159" points="158.26,42.31 158.26,42.48 1.95,43.84 1.95,43.67 "/>
    <polygon id="_391" class="fil158" points="158.26,42.42 158.26,42.59 1.95,43.95 1.95,43.78 "/>
    <polygon id="_392" class="fil158" points="158.26,42.53 158.26,42.7 1.95,44.06 1.95,43.89 "/>
    <polygon id="_393" class="fil157" points="158.26,42.64 158.26,42.81 1.95,44.17 1.95,44 "/>
    <polygon id="_394" class="fil156" points="158.26,42.75 158.26,42.92 1.95,44.28 1.95,44.12 "/>
    <polygon id="_395" class="fil155" points="158.26,42.86 158.26,43.03 1.96,44.39 1.95,44.23 "/>
    <polygon id="_396" class="fil154" points="158.26,42.97 158.27,43.14 1.96,44.5 1.95,44.34 "/>
    <polygon id="_397" class="fil153" points="158.26,43.09 158.27,43.25 1.96,44.62 1.96,44.45 "/>
    <polygon id="_398" class="fil153" points="158.27,43.2 158.27,43.36 1.96,44.73 1.96,44.56 "/>
    <polygon id="_399" class="fil152" points="158.27,43.31 158.27,43.47 1.96,44.84 1.96,44.67 "/>
    <polygon id="_400" class="fil152" points="158.27,43.42 158.27,43.59 1.96,44.95 1.96,44.78 "/>
    <polygon id="_401" class="fil151" points="158.27,43.53 158.27,43.7 1.96,45.06 1.96,44.89 "/>
    <polygon id="_402" class="fil150" points="158.27,43.64 158.27,43.81 1.96,45.17 1.96,45 "/>
    <polygon id="_403" class="fil149" points="158.27,43.75 158.27,43.92 1.96,45.28 1.96,45.12 "/>
    <polygon id="_404" class="fil148" points="158.27,43.86 158.27,44.03 1.96,45.39 1.96,45.23 "/>
    <polygon id="_405" class="fil148" points="158.27,43.98 158.27,44.14 1.97,45.5 1.96,45.34 "/>
    <polygon id="_406" class="fil147" points="158.27,44.09 158.28,44.25 1.97,45.62 1.96,45.45 "/>
    <polygon id="_407" class="fil147" points="158.28,44.2 158.28,44.36 1.97,45.73 1.97,45.56 "/>
    <polygon id="_408" class="fil146" points="158.28,44.31 158.28,44.47 1.97,45.84 1.97,45.67 "/>
    <polygon id="_409" class="fil146" points="158.28,44.42 158.28,44.59 1.97,45.95 1.97,45.78 "/>
    <polygon id="_410" class="fil145" points="158.28,44.53 158.28,44.7 1.97,46.06 1.97,45.89 "/>
    <polygon id="_411" class="fil144" points="158.28,44.64 158.28,44.81 1.97,46.17 1.97,46 "/>
    <polygon id="_412" class="fil143" points="158.28,44.75 158.28,44.92 1.97,46.28 1.97,46.12 "/>
    <polygon id="_413" class="fil142" points="158.28,44.86 158.28,45.03 1.97,46.39 1.97,46.23 "/>
    <polygon id="_414" class="fil142" points="158.28,44.97 158.28,45.14 1.97,46.5 1.97,46.34 "/>
    <polygon id="_415" class="fil141" points="158.28,45.09 158.28,45.25 1.97,46.62 1.97,46.45 "/>
    <polygon id="_416" class="fil140" points="158.28,45.2 158.29,45.36 1.98,46.73 1.97,46.56 "/>
    <polygon id="_417" class="fil139" points="158.29,45.31 158.29,45.48 1.98,46.84 1.97,46.67 "/>
    <polygon id="_418" class="fil138" points="158.29,45.42 158.29,45.59 1.98,46.95 1.98,46.78 "/>
    <polygon id="_419" class="fil137" points="158.29,45.53 158.29,45.7 1.98,47.06 1.98,46.89 "/>
    <polygon id="_420" class="fil136" points="158.29,45.64 158.29,45.81 1.98,47.17 1.98,47 "/>
    <polygon id="_421" class="fil136" points="158.29,45.75 158.29,45.92 1.98,47.28 1.98,47.12 "/>
    <polygon id="_422" class="fil135" points="158.29,45.86 158.29,46.03 1.98,47.39 1.98,47.23 "/>
    <polygon id="_423" class="fil134" points="158.29,45.97 158.29,46.14 1.98,47.5 1.98,47.34 "/>
    <polygon id="_424" class="fil133" points="158.29,46.09 158.29,46.25 1.98,47.62 1.98,47.45 "/>
    <polygon id="_425" class="fil132" points="158.29,46.2 158.29,46.36 1.98,47.73 1.98,47.56 "/>
    <polygon id="_426" class="fil131" points="158.29,46.31 158.29,46.47 1.99,47.84 1.98,47.67 "/>
    <polygon id="_427" class="fil130" points="158.29,46.42 158.3,46.59 1.99,47.95 1.99,47.78 "/>
    <polygon id="_428" class="fil129" points="158.3,46.53 158.3,46.7 1.99,48.06 1.99,47.89 "/>
    <polygon id="_429" class="fil129" points="158.3,46.64 158.3,46.81 1.99,48.17 1.99,48 "/>
    <polygon id="_430" class="fil128" points="158.3,46.75 158.3,46.92 1.99,48.28 1.99,48.11 "/>
    <polygon id="_431" class="fil127" points="158.3,46.86 158.3,47.03 1.99,48.39 1.99,48.23 "/>
    <polygon id="_432" class="fil126" points="158.3,46.98 158.3,47.14 1.99,48.5 1.99,48.34 "/>
    <polygon id="_433" class="fil125" points="158.3,47.09 158.3,47.25 1.99,48.62 1.99,48.45 "/>
    <polygon id="_434" class="fil125" points="158.3,47.2 158.3,47.36 1.99,48.73 1.99,48.56 "/>
    <polygon id="_435" class="fil124" points="158.3,47.31 158.3,47.47 1.99,48.84 1.99,48.67 "/>
    <polygon id="_436" class="fil124" points="158.3,47.42 158.31,47.59 1.99,48.95 1.99,48.78 "/>
    <polygon id="_437" class="fil123" points="158.3,47.53 158.31,47.7 2,49.06 1.99,48.89 "/>
    <polygon id="_438" class="fil123" points="158.31,47.64 158.31,47.81 2,49.17 2,49 "/>
    <polygon id="_439" class="fil122" points="158.31,47.75 158.31,47.92 2,49.28 2,49.12 "/>
    <polygon id="_440" class="fil121" points="158.31,47.86 158.31,48.03 2,49.39 2,49.23 "/>
    <polygon id="_441" class="fil121" points="158.31,47.97 158.31,48.14 2,49.5 2,49.34 "/>
    <polygon id="_442" class="fil120" points="158.31,48.09 158.31,48.25 2,49.61 2,49.45 "/>
    <polygon id="_443" class="fil119" points="158.31,48.2 158.31,48.36 2,49.73 2,49.56 "/>
    <polygon id="_444" class="fil118" points="158.31,48.31 158.31,48.47 2,49.84 2,49.67 "/>
    <polygon id="_445" class="fil118" points="158.31,48.42 158.31,48.58 2,49.95 2,49.78 "/>
    <polygon id="_446" class="fil117" points="158.31,48.53 158.31,48.7 2,50.06 2,49.89 "/>
    <polygon id="_447" class="fil116" points="158.31,48.64 158.32,48.81 2.01,50.17 2,50 "/>
    <polygon id="_448" class="fil116" points="158.31,48.75 158.32,48.92 2.01,50.28 2.01,50.12 "/>
    <polygon id="_449" class="fil115" points="158.32,48.86 158.32,49.03 2.01,50.39 2.01,50.23 "/>
    <polygon id="_450" class="fil115" points="158.32,48.97 158.32,49.14 2.01,50.5 2.01,50.34 "/>
    <polygon id="_451" class="fil114" points="158.32,49.09 158.32,49.25 2.01,50.62 2.01,50.45 "/>
    <polygon id="_452" class="fil113" points="158.32,49.2 158.32,49.36 2.01,50.73 2.01,50.56 "/>
    <polygon id="_453" class="fil112" points="158.32,49.31 158.32,49.47 2.01,50.84 2.01,50.67 "/>
    <polygon id="_454" class="fil111" points="158.32,49.42 158.32,49.59 2.01,50.95 2.01,50.78 "/>
    <polygon id="_455" class="fil110" points="158.32,49.53 158.32,49.7 2.01,51.06 2.01,50.89 "/>
    <polygon id="_456" class="fil109" points="158.32,49.64 158.32,49.81 2.01,51.17 2.01,51 "/>
    <polygon id="_457" class="fil108" points="158.32,49.75 158.33,49.92 2.01,51.28 2.01,51.11 "/>
    <polygon id="_458" class="fil107" points="158.32,49.86 158.33,50.03 2.02,51.39 2.01,51.23 "/>
    <polygon id="_459" class="fil106" points="158.33,49.97 158.33,50.14 2.02,51.5 2.02,51.34 "/>
    <polygon id="_460" class="fil105" points="158.33,50.08 158.33,50.25 2.02,51.62 2.02,51.45 "/>
    <polygon id="_461" class="fil104" points="158.33,50.2 158.33,50.36 2.02,51.73 2.02,51.56 "/>
    <polygon id="_462" class="fil103" points="158.33,50.31 158.33,50.47 2.02,51.84 2.02,51.67 "/>
    <polygon id="_463" class="fil103" points="158.33,50.42 158.33,50.59 2.02,51.95 2.02,51.78 "/>
    <polygon id="_464" class="fil102" points="158.33,50.53 158.33,50.7 2.02,52.06 2.02,51.89 "/>
    <polygon id="_465" class="fil102" points="158.33,50.64 158.33,50.81 2.02,52.17 2.02,52 "/>
    <polygon id="_466" class="fil101" points="158.33,50.75 158.33,50.92 2.02,52.28 2.02,52.12 "/>
    <polygon id="_467" class="fil101" points="158.33,50.86 158.33,51.03 2.03,52.39 2.02,52.23 "/>
    <polygon id="_468" class="fil100" points="158.33,50.97 158.34,51.14 2.03,52.5 2.02,52.34 "/>
    <polygon id="_469" class="fil99" points="158.33,51.09 158.34,51.25 2.03,52.61 2.03,52.45 "/>
    <polygon id="_470" class="fil98" points="158.34,51.2 158.34,51.36 2.03,52.73 2.03,52.56 "/>
    <polygon id="_471" class="fil97" points="158.34,51.31 158.34,51.47 2.03,52.84 2.03,52.67 "/>
    <polygon id="_472" class="fil97" points="158.34,51.42 158.34,51.58 2.03,52.95 2.03,52.78 "/>
    <polygon id="_473" class="fil96" points="158.34,51.53 158.34,51.7 2.03,53.06 2.03,52.89 "/>
    <polygon id="_474" class="fil95" points="158.34,51.64 158.34,51.81 2.03,53.17 2.03,53 "/>
    <polygon id="_475" class="fil94" points="158.34,51.75 158.34,51.92 2.03,53.28 2.03,53.11 "/>
    <polygon id="_476" class="fil93" points="158.34,51.86 158.34,52.03 2.03,53.39 2.03,53.23 "/>
    <polygon id="_477" class="fil93" points="158.34,51.97 158.34,52.14 2.04,53.5 2.03,53.34 "/>
    <polygon id="_478" class="fil92" points="158.34,52.09 158.35,52.25 2.04,53.62 2.03,53.45 "/>
    <polygon id="_479" class="fil92" points="158.35,52.2 158.35,52.36 2.04,53.73 2.04,53.56 "/>
    <polygon id="_480" class="fil91" points="158.35,52.31 158.35,52.47 2.04,53.84 2.04,53.67 "/>
    <polygon id="_481" class="fil91" points="158.35,52.42 158.35,52.59 2.04,53.95 2.04,53.78 "/>
    <polygon id="_482" class="fil90" points="158.35,52.53 158.35,52.7 2.04,54.06 2.04,53.89 "/>
    <polygon id="_483" class="fil89" points="158.35,52.64 158.35,52.81 2.04,54.17 2.04,54 "/>
    <polygon id="_484" class="fil88" points="158.35,52.75 158.35,52.92 2.04,54.28 2.04,54.11 "/>
    <polygon id="_485" class="fil87" points="158.35,52.86 158.35,53.03 2.04,54.39 2.04,54.23 "/>
    <polygon id="_486" class="fil86" points="158.35,52.97 158.35,53.14 2.04,54.5 2.04,54.34 "/>
    <polygon id="_487" class="fil85" points="158.35,53.08 158.35,53.25 2.04,54.61 2.04,54.45 "/>
    <polygon id="_488" class="fil84" points="158.35,53.2 158.35,53.36 2.05,54.73 2.04,54.56 "/>
    <polygon id="_489" class="fil83" points="158.35,53.31 158.36,53.47 2.05,54.84 2.05,54.67 "/>
    <polygon id="_490" class="fil82" points="158.36,53.42 158.36,53.58 2.05,54.95 2.05,54.78 "/>
    <polygon id="_491" class="fil81" points="158.36,53.53 158.36,53.7 2.05,55.06 2.05,54.89 "/>
    <polygon id="_492" class="fil80" points="158.36,53.64 158.36,53.81 2.05,55.17 2.05,55 "/>
    <polygon id="_493" class="fil79" points="158.36,53.75 158.36,53.92 2.05,55.28 2.05,55.12 "/>
    <polygon id="_494" class="fil79" points="158.36,53.86 158.36,54.03 2.05,55.39 2.05,55.23 "/>
    <polygon id="_495" class="fil78" points="158.36,53.97 158.36,54.14 2.05,55.5 2.05,55.34 "/>
    <polygon id="_496" class="fil78" points="158.36,54.09 158.36,54.25 2.05,55.61 2.05,55.45 "/>
    <polygon id="_497" class="fil77" points="158.36,54.2 158.36,54.36 2.05,55.73 2.05,55.56 "/>
    <polygon id="_498" class="fil76" points="158.36,54.31 158.36,54.47 2.06,55.84 2.05,55.67 "/>
    <polygon id="_499" class="fil76" points="158.36,54.42 158.37,54.58 2.06,55.95 2.06,55.78 "/>
    <polygon id="_500" class="fil75" points="158.37,54.53 158.37,54.7 2.06,56.06 2.06,55.89 "/>
    <polygon id="_501" class="fil74" points="158.37,54.64 158.37,54.81 2.06,56.17 2.06,56 "/>
    <polygon id="_502" class="fil73" points="158.37,54.75 158.37,54.92 2.06,56.28 2.06,56.11 "/>
    <polygon id="_503" class="fil73" points="158.37,54.86 158.37,54.79 2.06,56.15 2.06,56.23 "/>
   </g>
  </g>
 </g>
</svg>
