<?xml version="1.0" encoding="UTF-8"?>
<!DOCTYPE svg PUBLIC "-//W3C//DTD SVG 1.1//EN" "http://www.w3.org/Graphics/SVG/1.1/DTD/svg11.dtd">
<!-- Creator: CorelDRAW -->
<svg xmlns="http://www.w3.org/2000/svg" xml:space="preserve" width="160px" height="56px" version="1.1" style="shape-rendering:geometricPrecision; text-rendering:geometricPrecision; image-rendering:optimizeQuality; fill-rule:evenodd; clip-rule:evenodd"
viewBox="0 0 160 56"
 xmlns:xlink="http://www.w3.org/1999/xlink"
 xmlns:xodm="http://www.corel.com/coreldraw/odm/2003">
 <defs>
  <style type="text/css">
   <![CDATA[
    .fil0 {fill:#f2e0bc}
   ]]>
  </style>
 </defs>
 <g id="Camada_x0020_1">
  <metadata id="CorelCorpID_0Corel-Layer"/>
  <path class="fil0" d="M4.3 31.05c0.72,7.17 4.36,13.8 9.87,18.42 5.89,4.95 13.37,7.19 21.03,6.4 5.09,-0.53 9.92,-2.5 13.96,-5.57l3.78 0c0.11,0 0.19,-0.03 0.27,-0.11 0.07,-0.07 0.1,-0.16 0.1,-0.26 0,-0.11 -0.03,-0.19 -0.1,-0.27 -0.08,-0.07 -0.16,-0.1 -0.27,-0.1l-1.12 0c-0.41,0 -0.78,-0.15 -1.06,-0.44l-0.07 -0.07c1.07,-0.93 2.07,-1.94 2.99,-3.03 4.97,-5.88 7.2,-13.35 6.4,-21 -0.72,-6.96 -4.15,-13.42 -9.39,-18.04l0.07 -0.07c0.28,-0.29 0.65,-0.44 1.06,-0.44l1.12 0c0.11,0 0.19,-0.03 0.27,-0.1 0.07,-0.08 0.1,-0.16 0.1,-0.27 0,-0.11 -0.03,-0.19 -0.1,-0.27 -0.08,-0.07 -0.16,-0.1 -0.27,-0.1l-3.77 0c-5.72,-4.37 -12.78,-6.29 -19.99,-5.55 -6.99,0.72 -13.47,4.14 -18.09,9.39l-1.8 -3.84 -9.24 0c-0.1,0 -0.19,0.03 -0.27,0.1 -0.07,0.08 -0.1,0.16 -0.1,0.27 0,0.11 0.03,0.19 0.1,0.27 0.08,0.07 0.17,0.1 0.27,0.1l1.13 0c0.42,0 0.77,0.15 1.06,0.44 0.29,0.29 0.43,0.65 0.43,1.06l0 40.08c0,0.42 -0.14,0.77 -0.43,1.07 -0.29,0.29 -0.64,0.44 -1.06,0.44l-1.13 0c-0.1,0 -0.19,0.03 -0.27,0.1 -0.07,0.08 -0.1,0.16 -0.1,0.27 0,0.1 0.03,0.19 0.1,0.26 0.08,0.08 0.17,0.11 0.27,0.11l6 0c0.1,0 0.19,-0.03 0.27,-0.11 0.06,-0.07 0.1,-0.16 0.1,-0.26 0,-0.11 -0.04,-0.19 -0.1,-0.27 -0.08,-0.07 -0.17,-0.1 -0.27,-0.1l-1.13 0c-0.41,0 -0.77,-0.15 -1.05,-0.44 -0.3,-0.3 -0.44,-0.65 -0.44,-1.07l0 -40.08c0,-0.17 0.03,-0.34 0.08,-0.5l3.67 7.86c-2.45,4.8 -3.43,10.22 -2.88,15.72zm139.93 19.25c4.19,0 7.65,-0.9 10.4,-2.72 2.75,-1.82 4.26,-4.5 4.55,-8.04l0.03 -0.9c0,-1.73 -0.29,-3.23 -0.87,-4.5 -0.58,-1.28 -1.36,-2.41 -2.33,-3.39 -0.97,-0.97 -2.04,-1.86 -3.25,-2.65 -1.19,-0.78 -2.42,-1.53 -3.66,-2.24 -1.84,-1.03 -3.53,-2.14 -5.09,-3.3 -1.52,-1.23 -2.65,-2.65 -3.41,-4.28 -0.74,-1.61 -1.12,-3.19 -1.12,-4.73 0,-1.2 0.23,-2.32 0.69,-3.33 0.46,-1.02 1.14,-1.83 2.04,-2.44 0.91,-0.6 2.05,-0.9 3.42,-0.9 1.54,0 2.87,0.32 3.98,0.97 1.12,0.63 2,1.73 2.64,3.27 0.65,1.54 1.05,3.62 1.18,6.26l6.25 -5.04c-1.75,-2.21 -3.75,-3.87 -6.01,-4.96 -2.26,-1.11 -4.97,-1.65 -8.13,-1.65 -2.62,0 -4.84,0.47 -6.66,1.39 -1.82,0.94 -3.22,2.18 -4.17,3.74 -0.96,1.54 -1.44,3.22 -1.44,5.03 0,1.79 0.49,3.59 1.46,5.41 0.98,1.81 2.51,3.48 4.56,5 1.36,0.97 2.79,1.92 4.32,2.84 2.25,1.35 4.28,2.77 6.12,4.26 1.18,1.05 2.06,2.21 2.63,3.48 0.57,1.28 0.86,2.57 0.86,3.85 0,1.45 -0.35,2.82 -1.04,4.1 -0.71,1.28 -1.71,2.32 -3.02,3.12 -1.31,0.8 -2.9,1.2 -4.77,1.2 -1.77,-0.06 -3.34,-0.7 -4.69,-1.9 -1.36,-1.21 -2.42,-2.66 -3.2,-4.37 -0.78,-1.7 -1.17,-3.28 -1.17,-4.73l0.06 -0.82 -6.21 5.02c2.14,2.77 4.33,4.78 6.54,6.05 2.22,1.27 5.05,1.9 8.51,1.9zm-21.76 0c1.21,0 2.36,-0.41 3.47,-1.27 1.1,-0.84 1.92,-2.16 2.46,-3.97l0 -0.09c0,-0.22 -0.09,-0.35 -0.28,-0.37 -0.12,0 -0.23,0.09 -0.32,0.27 -0.43,1.4 -1.03,2.45 -1.81,3.17 -0.76,0.72 -1.5,1.08 -2.21,1.08 -0.51,0 -0.95,-0.21 -1.31,-0.63 -0.36,-0.41 -0.53,-1.06 -0.53,-1.96 0,-1.02 0.38,-2.82 1.12,-5.39 0.26,-0.87 0.5,-1.8 0.75,-2.78 0.21,-0.85 0.32,-1.66 0.32,-2.42 0,-1.92 -0.51,-3.61 -1.51,-5.08 -1.02,-1.46 -2.31,-2.63 -3.86,-3.49 -1.57,-0.86 -3.2,-1.37 -4.91,-1.54 1.27,-0.5 2.18,-0.86 2.72,-1.09 0.68,-0.32 1.45,-0.72 2.3,-1.21 1.94,-1.17 3.37,-2.5 4.29,-4.01 0.92,-1.51 1.37,-3.03 1.37,-4.57 0,-1.6 -0.44,-3.1 -1.34,-4.5 -0.89,-1.4 -2.18,-2.54 -3.86,-3.41 -1.67,-0.88 -3.67,-1.31 -6.01,-1.31l-16.95 0c-0.11,0 -0.19,0.03 -0.27,0.1 -0.07,0.08 -0.11,0.16 -0.11,0.27 0,0.09 0.04,0.16 0.11,0.25 0.08,0.08 0.16,0.12 0.27,0.12l1.13 0c0.41,0 0.76,0.15 1.05,0.44 0.3,0.29 0.44,0.65 0.44,1.06l0 40.08c0,0.4 -0.14,0.75 -0.44,1.05 -0.29,0.31 -0.64,0.46 -1.05,0.46l-1.13 0c-0.11,0 -0.19,0.03 -0.27,0.1 -0.07,0.08 -0.11,0.16 -0.11,0.27 0,0.1 0.04,0.19 0.11,0.26 0.08,0.08 0.16,0.11 0.27,0.11l11.24 0c0.11,0 0.19,-0.03 0.27,-0.11 0.07,-0.07 0.1,-0.16 0.1,-0.26 0,-0.11 -0.03,-0.19 -0.1,-0.27 -0.08,-0.07 -0.16,-0.1 -0.27,-0.1l-1.13 0c-0.42,0 -0.77,-0.15 -1.05,-0.46 -0.3,-0.3 -0.44,-0.65 -0.44,-1.05l0 -16.39c0.2,-1.37 0.83,-2.37 1.88,-3.02 1.06,-0.65 2.18,-1.14 3.36,-1.5 0.71,-0.21 1.42,-0.31 2.12,-0.31 1.73,0 3.26,0.54 4.6,1.62 1.33,1.08 1.99,2.47 1.99,4.18 0,0.67 -0.11,1.38 -0.32,2.15 -0.23,0.76 -0.48,1.58 -0.77,2.43 -0.37,1.06 -0.72,2.19 -1.04,3.41 -0.33,1.22 -0.5,2.51 -0.52,3.88 0,1.19 0.31,2.21 0.95,3.09 0.63,0.87 1.43,1.54 2.39,2.01 0.96,0.47 1.91,0.7 2.84,0.7zm-17.48 -20.95l0 -22.88 4.09 -0.03 1.46 0.03c2.29,0.21 4.18,1.15 5.66,2.84 1.47,1.69 2.22,3.65 2.22,5.92 0,1.33 -0.31,2.68 -0.91,4.04 -0.61,1.36 -1.59,2.66 -2.94,3.91 -1.35,1.24 -3.12,2.37 -5.31,3.37 -0.87,0.37 -1.68,0.78 -2.43,1.21 -0.75,0.44 -1.36,0.97 -1.84,1.59zm-10.16 20.95c0.11,0 0.19,-0.03 0.27,-0.11 0.07,-0.07 0.11,-0.16 0.11,-0.26 0,-0.11 -0.04,-0.19 -0.11,-0.27 -0.08,-0.07 -0.16,-0.1 -0.27,-0.1l-1.15 0c-1.09,0 -1.85,-0.52 -2.31,-1.54 -7.82,-21.46 -12.98,-35.57 -15.45,-42.29l-5.57 0c-0.26,0.7 -5.69,15.57 -16.26,44.57l6.84 0c-0.17,-1 -0.25,-2.14 -0.25,-3.43 0,-3.4 0.5,-7.48 1.5,-12.22l17.95 0c1.98,5.38 3.44,9.37 4.38,11.97l0.65 1.78c0.04,0.12 0.06,0.26 0.06,0.4 0,0.5 -0.29,0.76 -0.87,0.76l-1.13 0c-0.1,0 -0.2,0.03 -0.27,0.1 -0.06,0.08 -0.11,0.16 -0.11,0.27 0,0.1 0.05,0.19 0.11,0.26 0.07,0.08 0.17,0.11 0.27,0.11l11.61 0zm-14.95 -16.4l-17.55 0c1.42,-6.54 3.16,-12.69 5.25,-18.45l2.77 -7.57 9.53 26.02zm-29.56 10.46l0 -14c1.13,1.47 2.74,2.5 4.54,3.05l3.87 1.03 -0.29 1.15c-0.76,3 -3.47,8.43 -5.81,10.43l-1 0.86 -0.76 -1.09c-0.22,-0.3 -0.4,-0.86 -0.55,-1.43zm0 -15.33l0 -12.92c0.5,0.16 1.01,0.29 1.5,0.41 1.01,0.25 2.03,0.46 3.04,0.65 0.65,0.12 1.34,0.22 1.97,0.38l0.52 0.12 0.26 0.47c0.95,1.78 1.51,4.84 1.77,6.83 0.27,2.12 0.51,5.44 -0.36,7.43l-0.28 0.66 -0.72 0.06c-2.58,0.22 -5.13,-0.94 -6.82,-2.87 -0.35,-0.41 -0.65,-0.81 -0.88,-1.22zm0 -13.73l0 -7.33c0,-0.11 0.01,-0.21 0.03,-0.31 2.23,2.02 4.91,5.02 5.74,7.29l0.66 1.79 -1.9 -0.18c-1.64,-0.16 -3.06,-0.62 -4.53,-1.26zm-2.37 -9.57l-3.62 0 -6.88 14.73c-1.33,0.04 -2.85,0.03 -4.08,-0.29 -1.09,-0.28 -1.9,-0.81 -2.49,-1.76 -0.47,-0.75 -0.76,-1.66 -1.11,-2.47 -0.5,-1.16 -1.12,-2.18 -1.91,-3.17 -0.99,-1.24 -2.72,-2.38 -4.1,-3.13 -1.8,-0.99 -3.89,-1.8 -5.92,-2.15l-2.03 -0.34 1.3 -1.6c0.2,-0.24 0.31,-0.36 0.55,-0.58 1.32,-1.18 5.65,-2.86 7.44,-3.31 3.38,-0.87 6.41,-1 9.88,-0.81l0.98 0.05 0.14 0.97c0.23,1.55 0.81,2.97 1.63,4.29 0.35,0.56 0.72,1.3 1.18,1.77 0.25,0.25 0.49,0.39 0.79,0.43 0.09,-0.12 0.18,-0.23 0.21,-0.31 -0.11,-0.25 -0.72,-0.99 -0.86,-1.18 -0.83,-1.14 -1.76,-2.65 -1.93,-4.06l-0.21 -1.72 1.68 0.41c3.37,0.81 6.55,2.23 9.36,4.23zm-10.83 15.43l-6.51 13.94c-2.12,0.11 -3.94,-0.25 -5.94,-1.14 -0.79,-0.35 -1.57,-0.91 -2.31,-1.36 -0.13,-0.08 -0.41,-0.24 -0.7,-0.39l-10.25 -21.94c0.88,-1.02 1.95,-2.06 2.83,-2.27 3.45,-0.8 8.54,1.64 11.27,3.65 1.96,1.44 3.11,2.94 3.98,5.18 0.46,1.16 0.75,2.33 1.81,3.11 1.4,1.02 3.28,1.21 4.96,1.23 0.29,0 0.57,0 0.86,-0.01zm-6.81 14.57l-3.5 7.49 -4.56 -9.77c2.75,1.74 5.22,2.31 8.06,2.28zm-22.56 -19.19l13.36 28.65c-2.08,-0.44 -3.55,-1.62 -4.41,-3.84 -0.64,-1.66 -0.88,-3.85 -1.85,-5.32 -2.49,-3.75 -4.74,-4.44 -8.96,-5.29l-0.84 -0.17 -0.11 -0.86c-0.37,-2.93 0.54,-10.78 2.6,-12.95l0.21 -0.22zm13.72 29.41l2.03 4.35 0.85 0 2.17 -4.65 0.12 -0.03c2,-0.53 3.64,-1.69 5.84,-1.56 2.19,0.12 4.23,1.25 5.62,2.92 1.5,1.81 2.15,4.13 1.78,6.45l-0.11 0.69 -0.65 0.25c-3.87,1.45 -8.28,1.29 -12.27,0.4 -3.49,-0.78 -7.31,-2.28 -10.25,-4.33 -5.69,-3.97 -10.31,-10.49 -11.27,-17.43l-0.18 -1.35 1.36 -0.01c4.07,-0.05 7.77,3.5 8.81,7.26 0.93,3.39 1.48,5.92 5.44,6.9 0.24,0.05 0.47,0.1 0.71,0.14zm5.45 -1.16l4.24 -9.08c0.7,-0.04 1.44,-0.1 2.2,-0.19 3.91,-0.47 7.31,-1.12 10.97,0.81l0 11.72c0,0.42 -0.15,0.77 -0.45,1.07 -0.29,0.29 -0.64,0.44 -1.05,0.44l-1.13 0c-0.1,0 -0.19,0.03 -0.27,0.1 -0.06,0.08 -0.1,0.16 -0.1,0.27 0,0.1 0.04,0.19 0.1,0.26 0.08,0.08 0.17,0.11 0.27,0.11l6.35 0c-1.75,1.22 -4.58,2.75 -5.89,2.96l-1.36 0.22 -0.03 -1.37c-0.1,-3.64 -2.43,-6.9 -5.84,-8.19 -2.08,-0.79 -3.55,-0.69 -5.6,0.02 -0.81,0.28 -1.6,0.59 -2.41,0.85zm4.55 -9.75l6.49 -13.91c1.56,-0.06 3.13,-0.19 4.69,-0.17 0.57,0.01 1.14,0.04 1.68,0.11l0 14.48c-2.22,-1.06 -4.8,-1.3 -7.23,-1.19 -1.92,0.1 -3.75,0.49 -5.63,0.68zm6.82 -14.61l4.19 -9c0.21,0.27 0.52,0.56 0.66,0.66 0.22,0.17 0.82,0.53 1.19,0.58l0 7.75c-1.94,-0.24 -4.14,-0.08 -6.04,0.01zm4.45 -9.54l1.59 -3.42 0 4.52c-0.19,-0.23 -0.41,-0.44 -0.53,-0.53 -0.18,-0.15 -0.7,-0.48 -1.06,-0.57z"/>
 </g>
</svg>
