<?xml version="1.0" encoding="UTF-8"?>
<!DOCTYPE svg PUBLIC "-//W3C//DTD SVG 1.1//EN" "http://www.w3.org/Graphics/SVG/1.1/DTD/svg11.dtd">
<!-- Creator: CorelDRAW -->
<svg xmlns="http://www.w3.org/2000/svg" xml:space="preserve" width="160px" height="160px" version="1.1" style="shape-rendering:geometricPrecision; text-rendering:geometricPrecision; image-rendering:optimizeQuality; fill-rule:evenodd; clip-rule:evenodd"
viewBox="0 0 160 160"
 xmlns:xlink="http://www.w3.org/1999/xlink"
 xmlns:xodm="http://www.corel.com/coreldraw/odm/2003">
 <defs>
  <style type="text/css">
   <![CDATA[
    .fil0 {fill:url(#id0)}
   ]]>
  </style>
  <linearGradient id="id0" gradientUnits="userSpaceOnUse" x1="159.54" y1="71.94" x2="18.37" y2="71.94">
   <stop offset="0" style="stop-opacity:1; stop-color:#BF573F"/>
   <stop offset="1" style="stop-opacity:1; stop-color:#F2E0BD"/>
  </linearGradient>
 </defs>
 <g id="Camada_x0020_1">
  <metadata id="CorelCorpID_0Corel-Layer"/>
  <path class="fil0" d="M9.77 93.71c10.2,-0.12 18.66,9.37 20.9,17.5 2.34,8.51 4.13,17.96 17.27,21.2 5.87,1.45 12.06,0.95 17.7,-0.54 4.95,-1.3 9.87,-4.47 14.95,-4.17 9.98,0.58 19.03,10.34 17.19,21.9 -19.46,7.32 -45.49,-1.26 -58.58,-10.39 -12.05,-8.41 -26.58,-24.81 -29.43,-45.5zm23.29 -12.54c0.38,1.41 4.71,5.97 5.87,6.58 3.21,1.66 6.43,-0.95 5.92,-4.47 -0.28,-1.88 -4.62,-6.52 -5.81,-7.12 -3.85,-1.93 -7.03,1.19 -5.98,5.01zm73.59 -50.55c-7.1,3.7 4.01,13.04 8.48,10.71 6.75,-3.51 -3.95,-13.07 -8.48,-10.71zm-45.9 63.15c-3.56,-1.59 -9.28,-6.56 -12.4,-5.79 -2.21,0.55 -3.88,3.19 -2.47,5.98 0.62,1.23 3.56,3.17 4.75,3.94 24.81,15.98 42.6,-1.76 61.32,8.41 7.7,4.18 11.48,12.51 13.2,23.35 0.61,3.92 1.28,5.01 -0.9,7.05 -2.71,2.54 -13.57,9.06 -17.53,9.7 -0.31,-11.75 -7.93,-21.58 -18.08,-25.43 -14.95,-5.66 -20.38,4.45 -34.52,3.8 -16.75,-0.78 -12.83,-15.07 -18.84,-24.15 -7.55,-11.43 -14.81,-13.53 -26.58,-15.91 -1.02,-8.1 1.8,-28.15 6.22,-32.81 1.52,4.32 4.44,8.84 6.61,12.68 3.05,5.39 5.17,10.37 9.2,9.84 2.89,-0.39 4.13,-3.13 3.04,-6.09 -0.01,-0.02 -11.11,-18.61 -13.49,-24.5 -0.99,-2.46 0.7,-3.84 2.08,-5.69 1.83,-2.44 6.74,-8.71 9.26,-9.3 9.12,-2.14 23.02,5.65 28.15,9.43 12.24,9.03 8.54,17.37 15.84,22.72 8.52,6.24 21.73,3.26 32.94,3.44 18.61,0.3 9.98,9.9 16.48,21.5 3.47,6.19 9.31,10.42 16.05,12.48l7.53 2c-2.24,8.83 -9.72,22.51 -14.84,26.89 -2.42,-3.47 -2.76,-34.54 -40.53,-32.72 -12.92,0.62 -19.9,4.8 -32.49,-0.82zm-19.47 -72.75c0.68,-0.83 0.29,-0.45 1.14,-1.22 3.26,-2.91 15.28,-7.41 18.97,-8.36 8.91,-2.28 16.54,-2.63 26.04,-2.11 0.73,4.99 2.62,9.32 4.91,13.01 2.36,3.8 4.21,8.05 9.65,7.57 4.23,-4.36 2.22,-5.45 -0.6,-9.31 -1.67,-2.3 -4.26,-6.25 -4.67,-9.58 10.95,2.63 19.98,7.46 27.1,13.03 5.12,4.02 15.79,14.46 18.46,21.77 -10.8,-1.05 -16.85,-7.3 -20.58,-5.96 -1.98,0.71 -3.55,3.01 -2.36,5.8 2.38,5.58 23.97,8.53 27.27,9.33 3.52,6.55 7.21,28.22 3.76,36.2 -7.04,0.59 -12.78,-3.16 -15.91,-6.74 -5.32,-6.1 -2.88,-10.15 -5.41,-17.12 -4.65,-12.83 -18.57,-11.51 -33.11,-10.9 -22.75,0.97 -13.54,-5.07 -25.25,-19.76 -4.96,-6.22 -17.75,-13.67 -29.41,-15.65zm-40.85 68.11c4.12,41 41.53,75.75 88.11,70.92 41.06,-4.25 75.86,-41.39 71,-88.11 -4.28,-41.14 -41.37,-75.8 -88.12,-70.99 -41.29,4.25 -75.69,41.38 -70.99,88.18z"/>
 </g>
</svg>
